<svg width="100" height="68" viewBox="0 0 100 68" fill="none" xmlns="http://www.w3.org/2000/svg">
<path d="M57.0764 34.6955C57.0764 29.6725 55.1373 24.9478 51.5822 21.3919C50.7942 20.6038 49.9501 19.8938 49.0585 19.2664C49.4619 21.0647 49.6652 22.924 49.6571 24.8201C49.6571 31.4501 47.0794 37.7118 42.4055 42.3868C38.1595 46.6337 32.6895 49.148 26.7671 49.5752C30.05 52.1241 34.0605 53.4946 38.2818 53.4946C43.3036 53.4946 48.0271 51.555 51.5822 47.9991C55.1373 44.4432 57.0764 39.7185 57.0764 34.6955Z" fill="white"/>
<path fill-rule="evenodd" clip-rule="evenodd" d="M17.8556 48.6929C18.7221 49.9492 19.7017 51.1232 20.7798 52.2015C25.2547 56.6775 31.4699 59.4625 38.3066 59.4874C51.98 59.4874 63.0927 48.3721 63.0927 34.6955C63.0678 27.8572 60.3083 21.6655 55.8085 17.1646C52.9673 14.3228 49.4247 12.1626 45.4668 10.9577C47.1776 13.4878 48.3915 16.2938 49.0585 19.2664C49.9501 19.8938 50.7942 20.6038 51.5822 21.3919C55.1373 24.9478 57.0764 29.6725 57.0764 34.6955C57.0764 39.7185 55.1373 44.4432 51.5822 47.9991C48.0271 51.555 43.3036 53.4946 38.2818 53.4946C34.0605 53.4946 30.05 52.1241 26.7671 49.5752C26.1306 49.6211 25.4888 49.6429 24.8428 49.6401C22.4469 49.6606 20.0991 49.3368 17.8556 48.6929Z" fill="white"/>
<path d="M59.3483 51.4525C56.0914 48.1956 54.3055 43.8896 54.3055 39.3395C54.3055 29.9618 62.006 22.2364 71.4692 22.1836C76.0163 22.1857 80.3193 23.9715 83.5743 27.2265C86.8311 30.4833 88.6171 34.7894 88.6171 39.3395C88.6171 43.8896 86.8311 48.1956 83.5743 51.4525C80.3175 54.7093 76.0114 56.4953 71.4613 56.4953C66.9112 56.4953 62.6051 54.7093 59.3483 51.4525Z" fill="#1D166C" stroke="white" stroke-width="6.60977"/>
<ellipse rx="2.60943" ry="4.80096" transform="matrix(0.872894 0.487909 -0.40819 0.912897 30.5046 28.11)" fill="white"/>
<ellipse rx="2.13351" ry="3.92535" transform="matrix(0.872894 0.487909 -0.40819 0.912897 24.1565 23.976)" fill="white"/>
</svg>
