<svg width="151" height="151" viewBox="0 0 151 151" fill="none" xmlns="http://www.w3.org/2000/svg">
<path d="M4.99999 75.5C4.99999 36.5639 36.5639 5.00001 75.5 5.00001C114.436 5.00001 146 36.5639 146 75.5C146 114.436 114.436 146 75.5 146C36.5639 146 4.99999 114.436 4.99999 75.5Z" stroke="#150E5C" stroke-width="10"/>
<path d="M39.5691 63.8811C39.2765 64.3723 39.0915 64.92 39.0264 65.488C38.9612 66.056 39.0173 66.6314 39.1909 67.1761L42.0888 76.2574C42.3886 77.1975 43.0223 77.9952 43.8701 78.5001C44.7179 79.005 45.7212 79.1821 46.6907 78.9979L78.8459 72.9035C78.8883 72.8985 78.9261 72.8771 78.9675 72.8682C79 72.8604 79.0326 72.8632 79.065 72.8529C79.0976 72.8425 79.126 72.8256 79.1572 72.813C79.1938 72.7991 79.2341 72.7973 79.2695 72.7803L106.716 59.5941C107.592 59.1695 108.286 58.4442 108.671 57.5506C109.057 56.657 109.108 55.6547 108.816 54.7264L105.921 45.6572C105.605 44.6615 104.913 43.8277 103.994 43.3316C103.074 42.8355 101.998 42.716 100.992 42.9982L94.8349 43.8579C95.3279 44.1869 96.1752 44.786 96.1848 44.7932C97.4613 45.6933 98.2115 46.2254 98.5692 47.0736L101.488 45.6713C101.662 45.5913 101.851 45.5488 102.043 45.5465C102.234 45.5442 102.424 45.5822 102.6 45.658C102.776 45.7338 102.935 45.8458 103.065 45.9867C103.195 46.1275 103.293 46.2941 103.355 46.4757L106.249 55.5442C106.347 55.8537 106.33 56.1879 106.201 56.4858C106.073 56.7837 105.842 57.0256 105.55 57.1672L79.4714 69.6959L75.7506 58.0365C77.3252 57.28 80.5447 55.7333 84.1871 53.9833C82.9173 53.3671 81.5228 53.0512 80.1114 53.06C80.0267 53.0627 79.9406 53.0718 79.8554 53.0771L73.7146 56.0274L64.5069 57.7716C63.6216 58.1142 62.7771 58.5538 61.9886 59.0824C61.1344 59.7039 60.412 60.4888 59.8632 61.3914L73.1882 58.8672L76.9104 70.531L46.1895 76.3527C45.8663 76.414 45.5318 76.3549 45.2492 76.1866C44.9665 76.0182 44.7552 75.7523 44.6551 75.439L41.7573 66.358C41.6983 66.1765 41.679 65.9844 41.7008 65.7948C41.7226 65.6053 41.7849 65.4226 41.8836 65.2592C41.9816 65.096 42.1129 64.9552 42.2689 64.8461C42.425 64.7369 42.6022 64.6619 42.7892 64.6258L43.5935 64.4735C43.6803 63.6752 43.8561 62.8891 44.1178 62.1299C44.3453 61.3507 44.4792 60.9091 44.5602 60.6523L41.4849 62.2223C40.6851 62.5556 40.0135 63.1371 39.5691 63.8811Z" fill="white"/>
<path d="M64.8745 45.1801C64.6048 45.2713 64.3441 45.3874 64.096 45.5271C63.7798 45.0873 63.4704 44.6675 63.1698 44.2825C61.5865 42.2167 59.4995 40.5919 57.1085 39.5636C54.6099 38.5671 51.3056 38.5086 49.5568 40.6246C49.1386 41.1151 48.9225 41.7461 48.9521 42.39L44.4722 55.0601C44.3916 55.2882 44.3739 55.5338 44.4211 55.7711C44.4684 56.0084 44.5787 56.2285 44.7406 56.4083C45.6213 57.2705 46.6777 57.9325 47.8377 58.3493C47.2968 59.16 46.8481 60.0286 46.4998 60.9389C46.1913 61.8108 45.9276 62.6978 45.7099 63.5966C45.5947 63.8529 45.5378 64.1316 45.5432 64.4125C45.5486 64.6934 45.6161 64.9697 45.7409 65.2215C45.8518 65.3977 46.0019 65.546 46.1795 65.6547C46.3572 65.7633 46.5575 65.8295 46.7649 65.8479C48.753 66.0373 50.6969 66.5492 52.5204 67.3635C52.8895 67.5185 53.2883 67.5901 53.6883 67.5732C54.0883 67.5563 54.4796 67.4513 54.8343 67.2657C55.189 67.0801 55.4984 66.8184 55.7403 66.4994C55.9822 66.1804 56.1507 65.812 56.2338 65.4203C56.4811 64.2994 56.8334 63.2042 57.286 62.1493C58.0325 60.3293 59.2625 58.7481 60.8429 57.5768C62.4707 56.5463 64.2292 55.7384 66.0715 55.1749L66.1655 55.1411C66.7479 55.4463 67.3963 55.6039 68.0538 55.6002C69.4432 55.6002 70.8108 54.93 72.1098 54.4977C72.6492 54.3263 73.1482 54.0471 73.5766 53.6772C74.0049 53.3072 74.3537 52.8541 74.6017 52.3453C76.3582 51.7229 78.1894 51.3362 80.0475 51.1952C83.1967 51.0954 86.4414 52.6797 88.8013 54.6834C89.1096 54.9346 89.469 55.1154 89.8544 55.2132C90.2399 55.311 90.642 55.3234 91.0328 55.2495C91.4235 55.1757 91.7934 55.0173 92.1165 54.7855C92.4397 54.5537 92.7082 54.2542 92.9035 53.9077C93.814 52.1949 95.0079 50.6487 96.4347 49.3345C97.8238 48.0701 95.9242 46.923 95.0317 46.2932C93.7587 45.3172 92.3372 44.552 90.8215 44.0267C91.4657 43.0045 91.8685 41.8488 91.9991 40.6476C92.0111 40.4086 91.9591 40.1708 91.8486 39.9585C91.7381 39.7463 91.573 39.5673 91.3704 39.44L79.7185 32.1327C79.3355 31.6101 78.7726 31.2476 78.1382 31.1153C75.4121 30.4889 72.8478 32.5132 71.5146 34.7942C70.2833 37.0449 69.6774 39.5843 69.7599 42.1484C69.7699 42.611 69.794 43.1026 69.8254 43.6125C69.5571 43.6512 69.2927 43.7131 69.0351 43.7974L64.8745 45.1801ZM56.1094 42.0642C58.055 42.9196 59.753 44.2524 61.0461 45.939C61.273 46.2289 61.5026 46.5336 61.7393 46.8583C58.2825 46.2322 53.1321 43.8279 51.699 42.2946L51.6858 42.2798C52.5546 41.3267 54.5533 41.4427 56.1094 42.0642ZM47.3207 55.0854L50.8609 45.0725C53.3539 46.8513 58.4116 49.2052 62.2093 49.6142C62.3514 49.9455 62.5144 50.2673 62.6973 50.5779C60.1671 50.6913 58.168 52.1501 56.3778 53.4641C55.7195 53.9469 55.0986 54.4031 54.4731 54.7814C53.9155 55.0614 53.3136 55.2425 52.6941 55.3165C51.9303 55.4308 51.1843 55.6424 50.4743 55.9462C50.3213 56.0177 50.1819 56.1101 50.0379 56.1954C49.0643 56.0201 48.1386 55.6419 47.3207 55.0854ZM59.2907 55.3763C57.3095 56.8271 55.7638 58.7931 54.8217 61.0608C54.2899 62.2958 53.8783 63.5792 53.5925 64.8931C52.8595 64.5594 52.1091 64.2655 51.3445 64.0126C50.439 63.7307 49.5145 63.5135 48.5782 63.3628C48.7682 62.7091 48.9682 62.0409 49.0136 61.9084C49.7081 60.1178 50.6565 58.8337 51.6154 58.3853C52.1224 58.1812 52.6522 58.0391 53.1932 57.962C54.1314 57.8371 55.0383 57.5396 55.8681 57.0844C56.5961 56.6443 57.2959 56.1306 57.9721 55.634C59.7491 54.3298 61.4269 53.0946 63.425 53.279C61.9654 53.8043 60.5767 54.5088 59.2907 55.3763ZM92.1557 47.5771C92.2912 47.6629 92.8877 48.0761 93.4625 48.4817C92.8366 49.1451 92.26 49.8534 91.7374 50.6009C91.2963 51.2511 90.8984 51.9295 90.5463 52.6319L90.5456 52.6315V52.6312C89.465 51.7528 88.3053 50.9763 87.0816 50.3117C85.0168 49.1631 82.7012 48.5403 80.3389 48.4981C80.2132 48.4981 80.0876 48.5001 79.962 48.504C78.3681 48.5873 76.7905 48.8675 75.2654 49.3382C76.709 48.0182 78.8255 47.9909 81.0617 47.962C81.9107 47.9509 82.7894 47.9397 83.6424 47.8542C84.578 47.7214 85.4811 47.4169 86.3061 46.9559C86.7842 46.6942 87.2924 46.4914 87.8194 46.3521C88.8797 46.1309 90.4661 46.5839 92.1557 47.5771ZM79.8981 35.4247L89.1572 41.2311C88.8737 42.1294 88.3995 42.9559 87.7671 43.6541C87.601 43.6722 87.434 43.6821 87.2697 43.7162C86.5205 43.8973 85.7977 44.1739 85.119 44.5392C84.5786 44.8511 83.9879 45.0662 83.3735 45.1749C82.6369 45.2488 81.8549 45.259 81.0262 45.2695C78.766 45.299 76.247 45.3351 74.1715 46.7756C74.1715 46.7756 73.9709 45.8724 73.9053 45.7025C76.6112 43.1212 79.0616 38.3123 79.8982 35.4247L79.8981 35.4247ZM73.8402 36.1523C74.4512 35.1078 75.7686 33.7037 77.1412 33.7037C77.2654 33.7035 77.3894 33.7153 77.5114 33.7388C77.5114 33.7474 77.5108 33.7566 77.5101 33.7668C77.3799 35.6393 74.8826 40.7919 72.5051 43.3507C72.4794 42.9086 72.4623 42.4915 72.4537 42.0912C72.3864 40.0242 72.8646 37.9759 73.8402 36.1523L73.8402 36.1523ZM69.8849 46.3525C70.2848 46.2199 71.3089 46.1432 71.4206 46.7327L72.2197 50.9092C72.2821 51.2333 71.9105 51.726 71.2594 51.9426L68.6635 52.8054C68.4189 52.9159 68.1469 52.9507 67.8824 52.9055C67.6179 52.8602 67.373 52.7369 67.1791 52.5513C67.1791 52.5513 64.8341 48.9228 64.8161 48.895C64.493 48.395 65.3834 47.8487 65.7249 47.7352L69.8849 46.3525Z" fill="white"/>
<path d="M77.9015 117.084L105.667 111.609C106.578 111.432 107.4 110.944 107.992 110.229C108.585 109.515 108.912 108.617 108.918 107.689V83.5278C108.916 83.4113 108.899 83.2954 108.868 83.1833C108.922 82.9954 108.934 82.798 108.903 82.605C108.872 82.412 108.798 82.2283 108.688 82.0668C108.578 81.9053 108.434 81.7702 108.265 81.6709C108.097 81.5717 107.909 81.5108 107.714 81.4926L76.7334 78.174C76.4041 78.1306 76.0706 78.1291 75.7409 78.1694L44.1236 81.4693C43.9285 81.4861 43.7395 81.546 43.5703 81.6447C43.4012 81.7435 43.256 81.8785 43.1454 82.0401C43.0348 82.2018 42.9614 82.3859 42.9306 82.5794C42.8998 82.7728 42.9124 82.9707 42.9674 83.1586C42.9354 83.2712 42.9184 83.3875 42.9167 83.5044V107.728C42.9204 108.668 43.2546 109.577 43.8608 110.296C44.467 111.015 45.3066 111.498 46.2329 111.66L76.3875 117.096C76.8886 117.185 77.4018 117.181 77.9015 117.084ZM96.1216 110.747L89.3868 112.075V96.2854L90.007 96.5221C90.2207 96.6037 90.4516 96.6296 90.678 96.5973C90.9045 96.5651 91.119 96.4757 91.3014 96.3377L92.8752 95.1459L94.7233 95.8495C94.9368 95.9305 95.1673 95.9561 95.3933 95.9238C95.6193 95.8915 95.8335 95.8024 96.0157 95.6648L96.1216 95.5847V110.747ZM106.224 107.689C106.219 107.993 106.11 108.287 105.913 108.52C105.717 108.753 105.446 108.911 105.146 108.967L98.8155 110.215V92.9283C98.8179 92.7223 98.7725 92.5186 98.6828 92.3332C98.5931 92.1478 98.4616 91.9857 98.2986 91.8598C98.1356 91.7338 97.9456 91.6474 97.7436 91.6073C97.5415 91.5672 97.333 91.5746 97.1343 91.6289C96.9268 91.6645 96.7308 91.7488 96.5622 91.8748L94.9851 93.068L93.1363 92.3639C92.9228 92.2827 92.6921 92.257 92.4659 92.2894C92.2397 92.3218 92.0255 92.4111 91.8433 92.549L90.2701 93.7404L88.8339 93.1921C88.5957 93.0082 88.304 92.9071 88.0032 92.9039C87.7023 92.9007 87.4086 92.9957 87.1666 93.1745C86.9245 93.3532 86.7473 93.606 86.6619 93.8945C86.5764 94.1829 86.5873 94.4914 86.6929 94.7732V112.606L78.4816 114.225V88.6669L106.224 85.0604V107.689ZM76.0481 80.8441C76.1712 80.8298 76.2956 80.8311 76.4184 80.8481L99.0719 83.2749L77.1675 86.1224L53.2059 83.2285L76.0481 80.8441ZM62.4476 111.847L55.7129 110.633V96.9334L55.8141 97.0102C55.9965 97.1479 56.2109 97.2372 56.4372 97.2695C56.6634 97.3018 56.8942 97.2761 57.1078 97.1949L58.9527 96.4912L60.5292 97.6836C60.7113 97.8213 60.9254 97.9105 61.1515 97.9428C61.3775 97.9751 61.6081 97.9495 61.8215 97.8683L62.4476 97.6299L62.4476 111.847ZM75.7877 114.252L65.1416 112.333V96.1189C65.2363 95.8384 65.2395 95.5352 65.1508 95.2528C65.0621 94.9705 64.886 94.7236 64.648 94.5477C64.4099 94.3719 64.1221 94.2762 63.8262 94.2744C63.5302 94.2726 63.2413 94.3648 63.0012 94.5378L61.5598 95.0867L59.9826 93.8936C59.8003 93.756 59.586 93.6668 59.3599 93.6346C59.1337 93.6023 58.9031 93.628 58.6896 93.7092L56.8454 94.4129L55.2729 93.2215C55.0697 93.0636 54.8269 92.9649 54.5713 92.9361C54.3156 92.9074 54.057 92.9499 53.8239 93.0588C53.5908 93.1677 53.3923 93.3388 53.2503 93.5533C53.1082 93.7679 53.0282 94.0174 53.0189 94.2745V110.147L46.7116 109.01C46.4068 108.96 46.1295 108.803 45.9282 108.569C45.727 108.334 45.6146 108.037 45.6107 107.728V85.023L75.7877 88.6677L75.7877 114.252Z" fill="white"/>
</svg>
