<svg width="151" height="151" viewBox="0 0 151 151" fill="none" xmlns="http://www.w3.org/2000/svg">
<path d="M4.99999 75.5C4.99999 36.5639 36.5639 5.00001 75.5 5.00001C114.436 5.00001 146 36.5639 146 75.5C146 114.436 114.436 146 75.5 146C36.5639 146 4.99999 114.436 4.99999 75.5Z" stroke="#150E5C" stroke-width="10"/>
<path d="M70.8746 69.5587C71.035 69.5593 71.194 69.5288 71.3429 69.4691C73.4445 68.6365 75.2465 67.19 76.5138 65.3181C77.7812 63.4463 78.455 61.236 78.4476 58.9755V58.0919C78.4386 56.2022 79.0438 54.3607 80.1719 52.8447C81.3001 51.3286 82.8902 50.2201 84.7029 49.6859L90.1693 48.0451C90.3281 47.9976 90.4759 47.9192 90.6044 47.8145C90.7329 47.7097 90.8395 47.5808 90.9182 47.4348C90.9968 47.2889 91.046 47.1289 91.0628 46.964C91.0796 46.7991 91.0638 46.6325 91.0162 46.4737C90.9686 46.3149 90.8902 46.1671 90.7855 46.0386C90.6808 45.9101 90.5518 45.8035 90.4059 45.7248C90.26 45.6462 90.1 45.5971 89.9351 45.5802C89.7702 45.5634 89.6036 45.5793 89.4448 45.6268L83.9784 47.2676C81.6439 47.9562 79.5962 49.3844 78.1435 51.3372C76.6908 53.29 75.9116 55.6618 75.9233 58.0957V58.9792C75.929 60.7346 75.4057 62.4509 74.4216 63.9044C73.4375 65.3579 72.0382 66.4812 70.4063 67.1278C70.136 67.238 69.9122 67.4384 69.7731 67.6951C69.634 67.9517 69.5882 68.2486 69.6434 68.5353C69.6986 68.8219 69.8515 69.0806 70.076 69.2672C70.3005 69.4538 70.5827 69.5568 70.8746 69.5587Z" fill="white"/>
<path d="M64.3685 58.3255L65.8743 63.5975C65.9502 63.8608 66.1097 64.0922 66.3288 64.2569C66.5478 64.4215 66.8145 64.5104 67.0885 64.5101C67.2058 64.5097 67.3226 64.4936 67.4356 64.4621C67.5951 64.4167 67.744 64.3404 67.874 64.2374C68.004 64.1344 68.1123 64.0069 68.193 63.862C68.2736 63.7171 68.3249 63.5578 68.344 63.3931C68.363 63.2284 68.3494 63.0615 68.304 62.9021L66.7982 57.6287C66.2275 55.6415 66.4249 53.5123 67.351 51.6638C68.0957 50.1647 68.4832 48.5136 68.4832 46.8398C68.4832 45.166 68.0957 43.5149 67.351 42.0158L66.9623 41.2269C66.8882 41.0786 66.7856 40.9463 66.6604 40.8376C66.5352 40.7289 66.3898 40.6459 66.2325 40.5934C66.0752 40.5409 65.9091 40.5199 65.7437 40.5316C65.5783 40.5433 65.4168 40.5874 65.2685 40.6615C64.9689 40.8111 64.741 41.0736 64.6349 41.3913C64.5824 41.5486 64.5614 41.7147 64.5731 41.8801C64.5848 42.0455 64.6289 42.207 64.703 42.3553L65.0981 43.1442C65.669 44.2925 65.9661 45.5574 65.9661 46.8398C65.9661 48.1222 65.669 49.3871 65.0981 50.5354C63.8868 52.9488 63.6264 55.7291 64.3685 58.3255Z" fill="white"/>
<path d="M105.079 60.8498C105.202 60.5382 105.195 60.1907 105.061 59.8838C104.928 59.5769 104.677 59.3358 104.366 59.2134C104.054 59.0911 103.706 59.0975 103.4 59.2314C103.093 59.3652 102.852 59.6155 102.729 59.9272L100.648 65.2409C99.9638 67.0016 98.728 68.4936 97.1254 69.4935C95.5228 70.4935 93.6395 70.9476 91.7572 70.7881L90.8737 70.7136C88.6214 70.5209 86.3634 71.0117 84.3944 72.122C82.4253 73.2323 80.8368 74.9104 79.8361 76.9373C79.6868 77.2369 79.6626 77.5836 79.7689 77.901C79.8752 78.2184 80.1032 78.4806 80.4028 78.6299C80.5771 78.7174 80.7695 78.7628 80.9645 78.7624C81.2002 78.7636 81.4316 78.6987 81.6324 78.5751C81.8331 78.4515 81.9953 78.2742 82.1004 78.0632C82.881 76.4916 84.1158 75.1907 85.6445 74.3292C87.1733 73.4677 88.9256 73.0853 90.6743 73.2316L91.5578 73.3061C93.9813 73.5132 96.4067 72.9294 98.4705 71.6421C100.534 70.3549 102.126 68.4336 103.006 66.166L105.079 60.8498Z" fill="white"/>
<path d="M105.564 85.3243L106.321 85.7825C106.463 85.8743 106.622 85.9367 106.788 85.9661C106.954 85.9955 107.124 85.9912 107.289 85.9536C107.453 85.916 107.609 85.8458 107.746 85.7471C107.883 85.6485 107.998 85.5233 108.086 85.3792C108.174 85.235 108.232 85.0747 108.256 84.9077C108.281 84.7408 108.272 84.5706 108.23 84.4072C108.187 84.2438 108.113 84.0906 108.01 83.9565C107.908 83.8224 107.779 83.7103 107.633 83.6267L106.876 83.1673C105.443 82.3013 103.83 81.7792 102.161 81.6421C100.493 81.505 98.8161 81.7566 97.2617 82.3772C95.3434 83.1484 93.2055 83.171 91.2714 82.4403L86.1395 80.5079C85.8285 80.3992 85.4873 80.4165 85.1888 80.5559C84.8903 80.6954 84.6582 80.9461 84.542 81.2544C84.4258 81.5627 84.4348 81.9042 84.567 82.206C84.6993 82.5077 84.9442 82.7458 85.2497 82.8694L90.3816 84.8018C92.9077 85.759 95.7016 85.7297 98.207 84.7198C99.397 84.2468 100.68 84.0553 101.956 84.1601C103.233 84.265 104.467 84.6634 105.564 85.3243Z" fill="white"/>
<path d="M87.283 59.4614C87.283 60.4599 87.5791 61.436 88.1338 62.2662C88.6886 63.0965 89.4771 63.7436 90.3996 64.1257C91.3221 64.5078 92.3372 64.6078 93.3166 64.413C94.2959 64.2182 95.1955 63.7374 95.9015 63.0313C96.6076 62.3252 97.0884 61.4257 97.2833 60.4463C97.4781 59.467 97.3781 58.4519 96.996 57.5293C96.6138 56.6068 95.9667 55.8183 95.1365 55.2636C94.3062 54.7088 93.3301 54.4127 92.3316 54.4127C90.9926 54.4127 89.7085 54.9446 88.7617 55.8914C87.8149 56.8382 87.283 58.1224 87.283 59.4614ZM92.3316 56.937C92.8309 56.937 93.3189 57.0851 93.7341 57.3625C94.1492 57.6398 94.4727 58.0341 94.6638 58.4954C94.8548 58.9566 94.9048 59.4642 94.8074 59.9538C94.71 60.4435 94.4696 60.8933 94.1166 61.2463C93.7635 61.5994 93.3138 61.8398 92.8241 61.9372C92.3344 62.0346 91.8269 61.9846 91.3656 61.7935C90.9043 61.6025 90.5101 61.2789 90.2327 60.8638C89.9553 60.4487 89.8073 59.9606 89.8073 59.4614C89.8073 58.7919 90.0732 58.1498 90.5466 57.6764C91.02 57.203 91.6621 56.937 92.3316 56.937Z" fill="white"/>
<path d="M103.691 93.5397C102.692 93.5397 101.716 93.8358 100.886 94.3905C100.056 94.9453 99.4088 95.7338 99.0266 96.6563C98.6445 97.5788 98.5445 98.5939 98.7393 99.5733C98.9341 100.553 99.415 101.452 100.121 102.158C100.827 102.864 101.727 103.345 102.706 103.54C103.685 103.735 104.701 103.635 105.623 103.253C106.546 102.871 107.334 102.223 107.889 101.393C108.444 100.563 108.74 99.5869 108.74 98.5883C108.74 97.2493 108.208 95.9652 107.261 95.0184C106.314 94.0716 105.03 93.5397 103.691 93.5397ZM103.691 101.113C103.192 101.113 102.704 100.965 102.289 100.687C101.873 100.41 101.55 100.016 101.359 99.5543C101.168 99.0931 101.118 98.5855 101.215 98.0958C101.313 97.6062 101.553 97.1564 101.906 96.8034C102.259 96.4503 102.709 96.2099 103.199 96.1125C103.688 96.0151 104.196 96.0651 104.657 96.2562C105.118 96.4472 105.513 96.7708 105.79 97.1859C106.067 97.601 106.215 98.0891 106.215 98.5883C106.215 99.2578 105.949 99.8999 105.476 100.373C105.003 100.847 104.36 101.113 103.691 101.113Z" fill="white"/>
<path d="M55.7288 68.2965C56.7274 68.2965 57.7035 68.0004 58.5337 67.4457C59.364 66.8909 60.0111 66.1024 60.3932 65.1799C60.7753 64.2574 60.8753 63.2423 60.6805 62.2629C60.4857 61.2836 60.0048 60.384 59.2988 59.6779C58.5927 58.9719 57.6931 58.491 56.7138 58.2962C55.7344 58.1014 54.7193 58.2014 53.7968 58.5835C52.8743 58.9656 52.0858 59.6127 51.531 60.443C50.9763 61.2732 50.6802 62.2493 50.6802 63.2479C50.6802 64.5869 51.2121 65.871 52.1589 66.8178C53.1057 67.7646 54.3898 68.2965 55.7288 68.2965ZM55.7288 60.7235C56.2281 60.7235 56.7161 60.8716 57.1313 61.149C57.5464 61.4263 57.8699 61.8206 58.061 62.2819C58.2521 62.7431 58.302 63.2507 58.2046 63.7403C58.1072 64.23 57.8668 64.6798 57.5138 65.0328C57.1608 65.3859 56.711 65.6263 56.2213 65.7237C55.7316 65.8211 55.2241 65.7711 54.7628 65.58C54.3015 65.389 53.9073 65.0654 53.6299 64.6503C53.3526 64.2352 53.2045 63.7471 53.2045 63.2479C53.2045 62.5784 53.4705 61.9363 53.9439 61.4629C54.4173 60.9895 55.0593 60.7235 55.7288 60.7235Z" fill="white"/>
<path d="M100.602 74.7399L98.0781 76.002C97.7785 76.1517 97.5507 76.4142 97.4446 76.7318C97.3386 77.0495 97.3631 77.3963 97.5127 77.6958C97.6623 77.9954 97.9248 78.2233 98.2425 78.3294C98.5601 78.4354 98.9069 78.4109 99.2065 78.2613L101.731 76.9991C101.879 76.925 102.011 76.8225 102.12 76.6972C102.229 76.572 102.312 76.4266 102.364 76.2693C102.417 76.112 102.438 75.946 102.426 75.7806C102.415 75.6151 102.37 75.4537 102.296 75.3053C102.222 75.157 102.12 75.0247 101.994 74.916C101.869 74.8073 101.724 74.7243 101.566 74.6718C101.409 74.6193 101.243 74.5983 101.078 74.6099C100.912 74.6216 100.751 74.6658 100.602 74.7399Z" fill="white"/>
<path d="M74.6613 45.5775C74.9961 45.5775 75.3171 45.4446 75.5538 45.2079C75.7905 44.9712 75.9235 44.6501 75.9235 44.3154V40.5289C75.9235 40.1941 75.7905 39.8731 75.5538 39.6364C75.3171 39.3997 74.9961 39.2667 74.6613 39.2667C74.3266 39.2667 74.0055 39.3997 73.7688 39.6364C73.5321 39.8731 73.3992 40.1941 73.3992 40.5289V44.3154C73.3992 44.6501 73.5321 44.9712 73.7688 45.2079C74.0055 45.4446 74.3266 45.5775 74.6613 45.5775Z" fill="white"/>
<path d="M92.3316 97.3262H87.2829C86.9482 97.3262 86.6271 97.4591 86.3904 97.6958C86.1537 97.9326 86.0208 98.2536 86.0208 98.5883C86.0208 98.9231 86.1537 99.2441 86.3904 99.4808C86.6271 99.7175 86.9482 99.8505 87.2829 99.8505H92.3316C92.6663 99.8505 92.9873 99.7175 93.224 99.4808C93.4608 99.2441 93.5937 98.9231 93.5937 98.5883C93.5937 98.2536 93.4608 97.9326 93.224 97.6958C92.9873 97.4591 92.6663 97.3262 92.3316 97.3262Z" fill="white"/>
<path d="M80.5735 68.2308C80.8908 68.3363 81.2371 68.3116 81.5362 68.162C81.8354 68.0125 82.0629 67.7503 82.1689 67.4331L83.431 63.6466C83.4834 63.4892 83.5043 63.3229 83.4924 63.1574C83.4805 62.9919 83.4362 62.8303 83.3619 62.6819C83.2876 62.5336 83.1848 62.4013 83.0593 62.2926C82.9339 62.184 82.7883 62.1011 82.6308 62.0487C82.4734 61.9963 82.3071 61.9755 82.1416 61.9874C81.9761 61.9992 81.8145 62.0436 81.6662 62.1179C81.5178 62.1922 81.3855 62.295 81.2768 62.4204C81.1682 62.5459 81.0853 62.6915 81.0329 62.8489L79.7708 66.6354C79.7186 66.7929 79.698 66.9591 79.7102 67.1245C79.7223 67.2899 79.7669 67.4513 79.8415 67.5995C79.916 67.7477 80.019 67.8797 80.1447 67.988C80.2703 68.0963 80.416 68.1788 80.5735 68.2308Z" fill="white"/>
<path d="M109.94 46.3816C109.874 46.1799 109.759 45.9979 109.605 45.8525C109.45 45.7072 109.262 45.603 109.056 45.5498L106.738 44.9465L105.458 42.927C105.336 42.7581 105.176 42.6206 104.991 42.5257C104.806 42.4308 104.601 42.3813 104.393 42.3813C104.185 42.3813 103.979 42.4308 103.794 42.5257C103.609 42.6206 103.449 42.7581 103.327 42.927L102.037 44.9465L99.7201 45.5447C99.5156 45.5983 99.3278 45.7024 99.174 45.8475C99.0202 45.9925 98.9053 46.1739 98.8399 46.3749C98.7744 46.5759 98.7605 46.7902 98.7994 46.998C98.8383 47.2058 98.9288 47.4005 99.0625 47.5642L100.585 49.412L100.438 51.8C100.428 51.9722 100.452 52.1448 100.511 52.3071C100.57 52.4694 100.661 52.6179 100.779 52.7435C100.897 52.8692 101.04 52.9692 101.199 53.0375C101.357 53.1057 101.528 53.1408 101.7 53.1404C101.859 53.141 102.015 53.1115 102.162 53.0533L104.39 52.1698L106.617 53.0533C106.814 53.1313 107.028 53.1581 107.239 53.1313C107.449 53.1045 107.65 53.0251 107.822 52.9002C107.993 52.7754 108.131 52.6092 108.221 52.4171C108.312 52.225 108.353 52.0132 108.339 51.8013L108.193 49.412L109.715 47.5642C109.848 47.4014 109.938 47.2079 109.978 47.0014C110.017 46.7949 110.004 46.5818 109.94 46.3816ZM105.926 48.2003C105.722 48.4479 105.62 48.7638 105.641 49.0838L105.696 49.9926L104.85 49.6581C104.553 49.542 104.223 49.542 103.926 49.6581L103.08 49.9926L103.136 49.0851C103.156 48.7649 103.053 48.449 102.849 48.2016L102.271 47.4998L103.154 47.2739C103.464 47.1938 103.732 46.9989 103.904 46.7287L104.391 45.9625L104.879 46.7287C105.051 46.9982 105.319 47.1929 105.628 47.2739L106.512 47.4998L105.926 48.2003Z" fill="white"/>
<path d="M83.6808 104.967L83.5256 102.578C83.5117 102.366 83.4448 102.162 83.3309 101.983C83.2169 101.804 83.0598 101.656 82.8738 101.554C82.6879 101.452 82.4792 101.398 82.2671 101.398C82.0549 101.398 81.8462 101.451 81.6601 101.553L79.5611 102.704L77.2413 102.114C77.0356 102.06 76.8197 102.06 76.6139 102.113C76.408 102.166 76.2191 102.27 76.0649 102.417C75.9097 102.562 75.7936 102.743 75.7274 102.945C75.6613 103.147 75.6471 103.363 75.6863 103.571L76.1331 105.923L74.8533 107.942C74.7399 108.122 74.6736 108.327 74.6606 108.539C74.6475 108.751 74.6881 108.962 74.7786 109.154C74.8691 109.346 75.0065 109.512 75.1782 109.637C75.3498 109.762 75.5502 109.841 75.7607 109.868L78.1361 110.172L79.6646 112.013C79.783 112.155 79.9314 112.27 80.0991 112.349C80.2669 112.427 80.4499 112.468 80.6352 112.468C80.6884 112.468 80.7415 112.465 80.7943 112.458C81.0049 112.432 81.2054 112.352 81.3773 112.228C81.5491 112.103 81.6868 111.937 81.7775 111.745L82.7986 109.581L85.0225 108.697C85.2196 108.618 85.3937 108.491 85.5287 108.328C85.6637 108.164 85.7553 107.969 85.7949 107.76C85.8345 107.552 85.821 107.337 85.7555 107.135C85.6899 106.933 85.5746 106.751 85.4201 106.606L83.6808 104.967ZM81.4051 107.424C81.1084 107.541 80.8674 107.766 80.7311 108.055L80.3424 108.876L79.7631 108.178C79.559 107.932 79.2689 107.772 78.9515 107.731L78.0503 107.617L78.535 106.848C78.7059 106.577 78.7677 106.252 78.7079 105.938L78.5388 105.046L79.4223 105.27C79.7325 105.349 80.061 105.306 80.3411 105.152L81.1388 104.714L81.1969 105.621C81.2172 105.94 81.358 106.24 81.5907 106.459L82.2533 107.081L81.4051 107.424Z" fill="white"/>
<path d="M45.5054 85.5944C45.7011 85.6766 45.9144 85.7082 46.1255 85.6861C46.3366 85.6641 46.5388 85.5891 46.7133 85.4682L48.681 84.0987L51.0513 84.4383C51.2616 84.4686 51.4761 84.4455 51.6749 84.3709C51.8738 84.2964 52.0507 84.1728 52.1891 84.0117C52.3276 83.8506 52.4231 83.6572 52.4669 83.4493C52.5107 83.2415 52.5014 83.026 52.4397 82.8227L51.7455 80.5306L52.8007 78.3849C52.8943 78.1945 52.9384 77.9834 52.9289 77.7714C52.9194 77.5594 52.8565 77.3532 52.7462 77.1719C52.6359 76.9906 52.4816 76.84 52.2976 76.7341C52.1137 76.6283 51.906 76.5705 51.6938 76.5661L49.2957 76.5169L47.5829 74.8496C47.4307 74.7015 47.2436 74.5943 47.0389 74.5377C46.8342 74.4812 46.6185 74.4772 46.4119 74.5262C46.2053 74.5751 46.0143 74.6754 45.8567 74.8178C45.6992 74.9602 45.5801 75.14 45.5104 75.3406L44.7254 77.6024L42.6024 78.7194C42.4149 78.8186 42.2554 78.9636 42.1387 79.1408C42.022 79.3179 41.9519 79.5217 41.9348 79.7332C41.9177 79.9447 41.9541 80.157 42.0408 80.3507C42.1275 80.5443 42.2616 80.713 42.4308 80.8411L44.3379 82.2875L44.7481 84.6453C44.7843 84.8544 44.8727 85.051 45.0051 85.2169C45.1375 85.3828 45.3095 85.5126 45.5054 85.5944ZM46.3409 79.6029C46.6239 79.4535 46.8395 79.2022 46.9443 78.8999L47.2421 78.0416L47.8934 78.6727C48.1233 78.8948 48.4283 79.0223 48.7479 79.0299L49.6566 79.0488L49.2565 79.8629C49.1161 80.15 49.089 80.4794 49.1808 80.7856L49.4446 81.6564L48.5447 81.5302C48.2284 81.4853 47.9068 81.562 47.6448 81.7448L46.8988 82.2636L46.7436 81.3674C46.6884 81.0529 46.5161 80.7711 46.2614 80.5786L45.5382 80.0295L46.3409 79.6029Z" fill="white"/>
<path d="M87.9308 93.0501C87.9648 92.851 87.9506 92.6467 87.8893 92.4544C87.828 92.262 87.7215 92.0871 87.5786 91.9444L66.1597 70.5255C66.017 70.3825 65.8421 70.2759 65.6497 70.2145C65.4573 70.1532 65.2529 70.1389 65.0538 70.1729C64.8547 70.2069 64.6667 70.2882 64.5055 70.41C64.3444 70.5317 64.2148 70.6904 64.1276 70.8726L44.496 111.927C44.3844 112.162 44.3484 112.426 44.3927 112.683C44.4371 112.939 44.5598 113.176 44.7439 113.36C44.9281 113.544 45.1647 113.667 45.4212 113.711C45.6778 113.756 45.9419 113.72 46.1772 113.608L63.8803 105.142L71.8849 101.317L87.2328 93.9765C87.4147 93.8891 87.5731 93.7594 87.6945 93.5982C87.816 93.437 87.897 93.249 87.9308 93.0501ZM65.6359 73.5711L73.479 81.4154C71.6689 81.6908 69.8203 81.5592 68.0675 81.0301C66.3147 80.5011 64.7019 79.588 63.3464 78.3572L65.6359 73.5711ZM62.2066 80.7402C64.8585 82.9136 68.1811 84.1017 71.6097 84.1026C72.9624 84.0981 74.3083 83.9108 75.6108 83.546L78.0695 86.0084C72.2166 87.7587 65.9101 87.1357 60.5128 84.2742L62.2066 80.7402ZM59.4173 86.5739C62.4904 88.1916 65.8589 89.1709 69.3203 89.4529C72.7818 89.7349 76.2644 89.3137 79.5588 88.2147L80.099 88.0355L82.1463 90.0814L76.5764 92.3092C73.494 93.5292 70.16 93.9769 66.865 93.6133C63.5699 93.2496 60.4138 92.0856 57.6717 90.2228L59.4173 86.5739ZM48.3102 109.79L50.5947 105.013C52.3958 105.586 54.2615 105.931 56.1483 106.04L48.3102 109.79ZM62.9046 102.81C62.6282 102.887 62.3493 102.947 62.0703 103.012C61.8419 103.065 61.6159 103.128 61.3862 103.174C61.0644 103.237 60.7387 103.28 60.4144 103.327C60.2112 103.357 60.0105 103.397 59.8085 103.42C59.4715 103.459 59.1333 103.477 58.7988 103.499C58.6044 103.512 58.41 103.536 58.2157 103.542C57.89 103.555 57.5631 103.542 57.2375 103.542C57.0292 103.542 56.8222 103.549 56.6153 103.542C56.3224 103.531 56.0321 103.498 55.7406 103.474C55.4995 103.454 55.2584 103.444 55.0186 103.416C54.7788 103.388 54.5251 103.337 54.2777 103.299C53.9988 103.255 53.7173 103.219 53.4397 103.164C53.2327 103.122 53.0282 103.063 52.8212 103.015C52.5094 102.943 52.1964 102.877 51.8885 102.79C51.8228 102.771 51.7622 102.745 51.6928 102.726L53.244 99.4808L53.403 99.5729C53.5734 99.6701 53.7489 99.7547 53.9218 99.8468C54.226 100.01 54.5302 100.172 54.8394 100.32C55.0426 100.417 55.2496 100.503 55.4553 100.594C55.7406 100.72 56.0258 100.846 56.3149 100.961C56.5307 101.046 56.7503 101.122 56.9687 101.2C57.2539 101.302 57.5392 101.404 57.8282 101.495C58.0491 101.565 58.2725 101.621 58.4959 101.69C58.7874 101.77 59.079 101.849 59.3718 101.919C59.5952 101.972 59.8199 102.02 60.0433 102.066C60.3424 102.128 60.6416 102.183 60.9432 102.232C61.1653 102.269 61.3875 102.303 61.6096 102.332C61.9176 102.372 62.2256 102.406 62.5335 102.434C62.7532 102.454 62.9728 102.473 63.1936 102.487C63.3072 102.487 63.4183 102.509 63.5319 102.514L62.9046 102.81ZM70.8827 98.9948C68.1562 99.8899 65.2694 100.19 62.4172 99.8743C59.5649 99.5588 56.8134 98.6353 54.3484 97.166L56.5711 92.5199C60.2969 94.9608 64.654 96.2614 69.1081 96.2623C71.9848 96.2648 74.8355 95.7191 77.5078 94.6543L83.5788 92.2246C83.7364 92.1584 83.8782 92.06 83.9953 91.9356L84.528 92.4682L70.8827 98.9948Z" fill="white"/>
</svg>
