<svg width="151" height="151" viewBox="0 0 151 151" fill="none" xmlns="http://www.w3.org/2000/svg">
<path d="M4.99999 75.5C4.99999 36.5639 36.5639 5.00001 75.5 5.00001C114.436 5.00001 146 36.5639 146 75.5C146 114.436 114.436 146 75.5 146C36.5639 146 4.99999 114.436 4.99999 75.5Z" stroke="#150E5C" stroke-width="10"/>
<path d="M69.4862 101.694H68.7909V93.768C68.7909 93.629 68.7909 93.629 68.7909 93.4899C67.4003 86.2589 60.7256 83.895 56.832 83.0606C54.1899 82.5044 51.5478 81.8091 48.7667 80.8357C47.3761 80.2795 45.8465 80.6967 44.734 81.6701L43.6216 80.8357C43.4825 80.6967 43.3434 80.5576 43.3434 80.4185C43.2044 80.2795 43.2044 80.0014 43.2044 79.8623V75.1344C43.2044 74.0219 42.7872 73.0485 41.9529 72.2142C41.1185 71.5189 40.1451 70.9626 39.0327 70.9626C36.8077 70.9626 35 72.7704 35 74.9953V80.4185C35 82.6435 35.5562 84.8684 36.6687 86.8152C41.5357 95.5758 49.601 99.4694 52.7993 100.582C53.0774 100.721 53.2165 100.86 53.2165 101.138V101.416H52.7993C50.9916 101.416 49.462 102.946 49.462 104.754V108.23C49.462 109.899 50.7135 111.15 52.3822 111.15H70.0424C71.5721 111.15 72.9626 109.76 72.9626 108.23V104.754C72.8236 103.224 71.2939 101.694 69.4862 101.694ZM53.9118 98.3569C51.5478 97.5226 43.7606 93.9071 39.1717 85.7027C38.3374 84.1731 37.9202 82.5044 37.9202 80.6967V75.2734C37.9202 74.5781 38.4764 74.0219 39.1717 74.0219C39.4498 74.0219 39.867 74.161 40.0061 74.4391C40.1451 74.5781 40.4232 74.8562 40.4232 75.4125V80.1404C40.4232 80.6967 40.5623 81.2529 40.8404 81.8091C41.1185 82.3653 41.5357 82.7825 41.9529 83.1997L43.4825 84.3121C43.4825 84.8684 43.4825 85.4246 43.6216 85.8418C43.8997 86.9542 44.734 87.9276 45.7074 88.3448L54.1899 92.5165C54.8852 92.7946 55.7195 92.5165 55.9976 91.8212C56.2758 91.1259 55.9976 90.2916 55.3024 90.0135L46.8199 85.8418C46.5418 85.7027 46.2636 85.4246 46.1246 85.0074C45.9855 84.5903 46.1246 84.3121 46.2636 83.895C46.5418 83.4778 47.237 83.1997 47.7933 83.4778C50.7135 84.4512 53.4946 85.2855 56.2758 85.8418C59.4741 86.5371 64.8973 88.3448 66.0098 93.9071V101.694H55.9976V101.416C55.9976 100.026 55.1633 98.7741 53.9118 98.3569ZM70.0424 108.508C70.0424 108.647 70.0424 108.647 70.0424 108.508L52.3822 108.647C52.2431 108.647 52.2431 108.508 52.2431 108.508V105.032C52.2431 104.754 52.5212 104.475 52.7993 104.475H69.4862C69.7643 104.475 70.0424 104.754 70.0424 105.032V108.508Z" fill="white"/>
<path d="M113.29 71.1017C112.177 71.1017 111.204 71.5189 110.508 72.2141C109.813 72.9094 109.257 74.0219 109.257 75.1343V79.8623C109.257 80.0013 109.257 80.1404 109.118 80.4185C109.118 80.5576 108.979 80.6966 108.84 80.8357L107.727 81.67C106.615 80.6966 105.085 80.4185 103.695 80.8357C100.913 81.8091 98.2714 82.5044 95.6293 83.0606C91.7357 83.8949 85.0609 86.2589 83.6704 93.4899C83.6704 93.629 83.6704 93.629 83.6704 93.768V101.694H82.9751C81.1673 101.694 79.6377 103.224 79.6377 105.032V108.508C79.6377 110.177 80.8892 111.428 82.5579 111.428H100.218C101.748 111.428 103.138 110.038 103.138 108.508V105.032C103.138 103.224 101.609 101.694 99.801 101.694H99.3838V101.416C99.3838 101.138 99.5229 100.999 99.801 100.86C102.999 99.6084 111.065 95.7148 115.932 87.0933C117.044 85.1465 117.6 83.0606 117.6 80.6966V75.2734C117.322 72.9094 115.514 71.1017 113.29 71.1017ZM100.079 105.032V108.508L99.9401 108.647H82.4188C82.2798 108.647 82.2798 108.508 82.2798 108.508V105.032C82.2798 104.754 82.5579 104.475 82.836 104.475H99.5229C99.801 104.475 100.079 104.754 100.079 105.032ZM114.541 80.6966C114.541 82.5044 114.124 84.1731 113.29 85.7027C108.84 93.629 101.47 97.1054 98.4104 98.3569C97.1589 98.9131 96.3246 100.165 96.3246 101.416V101.694H86.3124V93.9071C87.4249 88.3448 92.8481 86.537 96.0464 85.8418C98.8276 85.2855 101.609 84.4512 104.529 83.4778C105.085 83.3387 105.641 83.4778 106.059 83.895C106.337 84.1731 106.337 84.5902 106.198 85.0074C106.059 85.4246 105.92 85.7027 105.502 85.8418L97.0198 90.0135C96.3246 90.2916 96.0464 91.1259 96.3246 91.8212C96.6027 92.5165 97.437 92.7946 98.1323 92.5165L106.615 88.3448C107.727 87.7886 108.423 86.9542 108.701 85.8418C108.84 85.2855 108.84 84.7293 108.84 84.1731L110.369 83.0606C110.787 82.6434 111.204 82.2263 111.482 81.67C111.76 81.1138 111.899 80.5576 111.899 80.0013V75.2734C111.899 74.9953 112.038 74.5781 112.316 74.4391C112.455 74.3 112.733 74.0219 113.29 74.0219C113.985 74.0219 114.541 74.5781 114.541 75.2734V80.6966Z" fill="white"/>
<path d="M75.4999 50.1336L74.2931 48.4983C73.6407 47.6143 72.9101 46.8697 72.1164 46.2683L72.1163 46.2682C70.5591 45.088 68.8147 44.5 66.8947 44.5C64.2862 44.5 61.9145 45.5183 60.1862 47.3551L75.4999 50.1336ZM75.4999 50.1336L76.7069 48.4984M75.4999 50.1336L76.7069 48.4984M76.7069 48.4984C77.3596 47.614 78.09 46.8696 78.8835 46.2681C80.4411 45.088 82.1854 44.5 84.1053 44.5C86.7138 44.5 89.0853 45.5183 90.8136 47.3552C92.5253 49.1745 93.5 51.6941 93.5 54.4848C93.5 57.2768 92.4589 59.9042 89.9869 62.8269L89.9869 62.827C87.7285 65.4973 84.4516 68.24 80.4886 71.5492L80.4885 71.5493L80.4529 71.579C79.1201 72.6922 77.6044 73.9582 76.031 75.3064L76.0303 75.3071C75.8889 75.4284 75.7008 75.5 75.5 75.5C75.2993 75.5 75.1115 75.4287 74.9693 75.3066L74.9683 75.3058C73.3832 73.9478 71.8576 72.6736 70.518 71.5549L70.5124 71.5502L70.5123 71.5501M76.7069 48.4984L70.5123 71.5501M70.5123 71.5501C66.5488 68.2404 63.2718 65.4973 61.0134 62.8272C58.5413 59.9041 57.5 57.2767 57.5 54.485C57.5 51.6942 58.4747 49.1746 60.186 47.3552L70.5123 71.5501Z" stroke="white" stroke-width="3"/>
</svg>
