<svg width="159" height="159" viewBox="0 0 159 159" fill="none" xmlns="http://www.w3.org/2000/svg">
<g filter="url(#filter0_d)">
<path d="M8.99999 75.5C8.99999 36.5639 40.5639 5.00001 79.5 5.00001C118.436 5.00001 150 36.5639 150 75.5C150 114.436 118.436 146 79.5 146C40.5639 146 8.99999 114.436 8.99999 75.5Z" stroke="#150E5C" stroke-width="10"/>
<path d="M95.1721 46.0008C94.9763 46.0005 94.7805 46.0027 94.5847 46.0072C91.3742 46.0844 88.2118 46.805 85.2849 48.1265C82.358 49.4481 79.7261 51.3435 77.5451 53.7007C74.2978 50.2419 70.0697 47.86 65.4288 46.8748C60.788 45.8896 55.9568 46.3486 51.5844 48.1898C47.212 50.031 43.5079 53.1661 40.9697 57.1742C38.4315 61.1824 37.1809 65.8713 37.3858 70.6111C35.9834 71.3946 34.9143 72.6624 34.3785 74.1769C33.8426 75.6914 33.8768 77.3493 34.4745 78.8404C35.0722 80.3316 36.1926 81.5538 37.6261 82.2789C39.0597 83.004 40.7082 83.1823 42.2636 82.7802C43.819 82.3781 45.1746 81.4231 46.0771 80.0941C46.9796 78.765 47.3671 77.153 47.1672 75.559C46.9674 73.965 46.1937 72.4983 44.991 71.4333C43.7883 70.3682 42.2389 69.7774 40.6324 69.7718C41.1087 67.4612 42.3412 65.3752 44.1351 63.8431C45.9291 62.311 48.1823 61.4203 50.5389 61.3114C52.8956 61.2026 55.2213 61.8818 57.1489 63.242C59.0764 64.6022 60.4959 66.5658 61.1832 68.8227C61.9607 67.8838 62.8063 67.0036 63.7133 66.1892C62.8589 64.2979 61.5924 62.6218 60.0065 61.2832C58.4206 59.9446 56.5555 58.9778 54.5476 58.453C52.5398 57.9283 50.44 57.8591 48.402 58.2507C46.3639 58.6422 44.4393 59.4846 42.7688 60.716C44.2688 57.7121 46.5033 55.1355 49.265 53.2257C52.0266 51.316 55.2259 50.135 58.5659 49.7918C61.906 49.4487 65.2786 49.9548 68.3708 51.2631C71.4631 52.5715 74.1747 54.6394 76.2542 57.2756C76.4093 57.4725 76.6071 57.6315 76.8327 57.7407C77.0583 57.8498 77.3058 57.9063 77.5564 57.9057C77.807 57.9051 78.0542 57.8475 78.2792 57.7372C78.5043 57.627 78.7013 57.4668 78.8553 57.2692C80.8361 54.7327 83.3811 52.6933 86.2881 51.3127C89.1951 49.9321 92.3841 49.2481 95.6016 49.3158C98.8191 49.3834 101.976 50.2006 104.823 51.7022C107.669 53.2038 110.126 55.3484 111.999 57.9659C108.195 55.9185 103.842 55.1247 99.5608 55.6972C95.2793 56.2698 91.288 58.1795 88.1561 61.1544C89.3194 61.5453 90.452 62.0223 91.5447 62.5811C94.6875 60.0716 98.6103 58.7428 102.631 58.8254C106.652 58.908 110.517 60.3967 113.554 63.0331C113.141 64.5116 113.256 66.0877 113.879 67.4909C114.501 68.894 115.593 70.0366 116.966 70.7228C118.339 71.4089 119.908 71.5957 121.404 71.2511C122.9 70.9064 124.229 70.0519 125.164 68.8341C126.098 67.6162 126.579 66.1113 126.525 64.5772C126.471 63.0431 125.884 61.5755 124.866 60.4267C123.848 59.2779 122.462 58.5197 120.945 58.2815C119.429 58.0434 117.877 58.3402 116.555 59.1216C114.549 55.1747 111.489 51.8603 107.715 49.5445C103.941 47.2286 99.5999 46.0018 95.1721 46L95.1721 46.0008ZM119.841 61.4978C120.282 61.4874 120.721 61.5654 121.132 61.7276C121.543 61.8899 121.917 62.133 122.232 62.4423C122.548 62.7516 122.798 63.1207 122.968 63.5283C123.138 63.9358 123.225 64.3734 123.223 64.8151C123.224 65.2495 123.139 65.6798 122.973 66.0813C122.807 66.4829 122.564 66.848 122.257 67.1554C121.95 67.4629 121.585 67.7068 121.184 67.8732C120.783 68.0396 120.353 68.1251 119.918 68.1251C119.484 68.1251 119.054 68.0396 118.652 67.8732C118.251 67.7068 117.887 67.4629 117.58 67.1554C117.273 66.848 117.029 66.4829 116.864 66.0813C116.698 65.6798 116.613 65.2495 116.614 64.8151C116.61 63.9496 116.946 63.1176 117.549 62.4972C118.153 61.8769 118.976 61.5181 119.841 61.4978ZM40.5291 73.0639C40.9707 73.0535 41.4098 73.1319 41.8206 73.2941C42.2314 73.4563 42.6055 73.6991 42.9207 74.0084C43.236 74.3177 43.4861 74.6871 43.6563 75.0947C43.8264 75.5023 43.9131 75.9399 43.9112 76.3815C43.9114 76.8156 43.826 77.2452 43.6599 77.6462C43.4939 78.0473 43.2505 78.4119 42.9436 78.7188C42.6368 79.0258 42.2724 79.2693 41.8714 79.4354C41.4704 79.6016 41.0406 79.687 40.6066 79.687C40.1725 79.687 39.7427 79.6016 39.3417 79.4354C38.9407 79.2693 38.5764 79.0258 38.2695 78.7188C37.9626 78.4119 37.7192 78.0473 37.5532 77.6462C37.3872 77.2452 37.3018 76.8156 37.3019 76.3815C37.2983 75.5161 37.6343 74.6836 38.2378 74.0633C38.8412 73.4429 39.6639 73.0842 40.5291 73.0639Z" fill="white"/>
<path d="M79.6716 63.1438C74.0749 63.2986 68.7598 65.6326 64.8585 69.6484C60.9572 73.6643 58.778 79.0446 58.7852 84.6435C58.7845 87.4647 59.3396 90.2585 60.4188 92.8652C61.498 95.4719 63.0801 97.8404 65.0748 99.8356C67.0695 101.831 69.4376 103.413 72.0441 104.493C74.6505 105.573 77.4442 106.129 80.2654 106.129C83.0867 106.129 85.8803 105.573 88.4867 104.493C91.0932 103.413 93.4614 101.831 95.4561 99.8356C97.4508 97.8404 99.0329 95.4719 100.112 92.8652C101.191 90.2585 101.746 87.4647 101.746 84.6435C101.749 81.7703 101.177 78.9255 100.061 76.2776C98.946 73.6298 97.3109 71.2326 95.2527 69.228C93.1945 67.2233 90.755 65.6522 88.0787 64.6071C85.4024 63.562 82.5436 63.0644 79.6716 63.1438ZM79.7427 66.4676C82.1732 66.3977 84.593 66.8163 86.8588 67.6984C89.1247 68.5804 91.1905 69.9079 92.9341 71.6026C94.6776 73.2974 96.0633 75.3249 97.0093 77.5648C97.9552 79.8048 98.4421 82.212 98.4411 84.6435C98.4448 87.0327 97.9774 89.3989 97.0656 91.6073C96.1539 93.8158 94.8157 95.8228 93.1275 97.5135C91.4394 99.2043 89.4345 100.546 87.2275 101.461C85.0205 102.376 82.6547 102.847 80.2655 102.847C77.8763 102.847 75.5105 102.376 73.3035 101.461C71.0965 100.546 69.0915 99.2043 67.4034 97.5135C65.7153 95.8228 64.3771 93.8158 63.4653 91.6073C62.5536 89.3989 62.0862 87.0327 62.0899 84.6435C62.0879 79.9122 63.9309 75.3667 67.2272 71.9728C70.5236 68.5788 75.0134 66.6037 79.7427 66.4676Z" fill="white"/>
<path d="M77.8447 68.0747C76.12 68.1202 74.4814 68.8384 73.279 70.0758C72.0766 71.3132 71.4057 72.9713 71.4097 74.6967C71.4094 75.5648 71.5802 76.4248 71.9123 77.2268C72.2443 78.0289 72.7311 78.7577 73.3449 79.3717C73.9586 79.9856 74.6873 80.4726 75.4893 80.8048C76.2913 81.1371 77.1509 81.308 78.019 81.308C78.8871 81.308 79.7467 81.1371 80.5487 80.8048C81.3507 80.4726 82.0794 79.9856 82.6931 79.3717C83.3069 78.7577 83.7937 78.0289 84.1257 77.2268C84.4578 76.4248 84.6285 75.5648 84.6283 74.6967C84.6303 73.8128 84.455 72.9376 84.1128 72.1227C83.7706 71.3077 83.2684 70.5697 82.6359 69.9523C82.0034 69.3349 81.2535 68.8504 80.4306 68.5279C79.6076 68.2054 78.7283 68.0514 77.8447 68.0747ZM77.9415 71.3729C78.3836 71.3625 78.8233 71.4409 79.2345 71.6035C79.6457 71.7662 80.0201 72.0098 80.3355 72.3197C80.6509 72.6297 80.9008 72.9996 81.0706 73.408C81.2403 73.8163 81.3263 74.2545 81.3236 74.6967C81.3237 75.1307 81.2384 75.5607 81.0723 75.9618C80.9063 76.3628 80.6629 76.7274 80.356 77.0344C80.0492 77.3413 79.6848 77.5848 79.2838 77.7509C78.8828 77.9171 78.453 78.0025 78.019 78.0025C77.5849 78.0025 77.1551 77.9171 76.7541 77.7509C76.3531 77.5848 75.9888 77.3413 75.6819 77.0344C75.375 76.7274 75.1316 76.3628 74.9656 75.9618C74.7996 75.5607 74.7142 75.1307 74.7143 74.6967C74.709 73.8301 75.0442 72.9964 75.6479 72.3746C76.2515 71.7529 77.0752 71.3932 77.9415 71.3729Z" fill="white"/>
<path d="M86.6556 81.997C86.4296 82.0055 86.2077 82.0605 86.0037 82.1582C81.223 84.418 75.7891 84.8829 70.6939 83.4683C70.4528 83.4006 70.1994 83.3889 69.953 83.4336C69.7065 83.4783 69.4735 83.5784 69.2714 83.7263C69.0693 83.8743 68.9036 84.0659 68.7866 84.2874C68.6696 84.5089 68.6045 84.7541 68.5962 85.0044C68.5521 86.4107 68.8061 87.8103 69.3416 89.1114C69.8771 90.4125 70.682 91.5856 71.7033 92.5534C72.7246 93.5211 73.9392 94.262 75.2672 94.7268C76.5952 95.1915 78.0066 95.3698 79.4085 95.2501C80.8104 95.1304 82.1711 94.7155 83.4011 94.0323C84.6311 93.3491 85.7025 92.4133 86.545 91.2864C87.3874 90.1594 87.9818 88.8668 88.289 87.4938C88.5962 86.1207 88.6092 84.6985 88.3273 83.32C88.3273 83.3178 88.3273 83.3154 88.3273 83.3131C88.2484 82.9319 88.0375 82.5908 87.7316 82.3499C87.4258 82.109 87.0447 81.984 86.6556 81.9966L86.6556 81.997ZM85.184 86.0697C85.0091 87.5986 84.3105 89.0195 83.2068 90.0918C82.1031 91.1641 80.6624 91.8215 79.1291 91.9523C77.5959 92.083 76.0647 91.6794 74.7953 90.8095C73.526 89.9396 72.5968 88.6572 72.1655 87.1801C76.5274 87.9544 81.0162 87.5716 85.184 86.0697Z" fill="white"/>
<path d="M55.8619 83.1343L49.0795 81.4107C48.6547 81.303 48.2046 81.3684 47.8281 81.5925C47.4516 81.8166 47.1794 82.181 47.0715 82.6056C46.9635 83.0303 47.0286 83.4803 47.2524 83.857C47.4763 84.2337 47.8405 84.5062 48.2651 84.6144L55.0475 86.338C55.4722 86.4457 55.9223 86.3802 56.2988 86.1562C56.6754 85.9321 56.9475 85.5677 57.0555 85.143C57.1634 84.7184 57.0983 84.2684 56.8745 83.8917C56.6507 83.515 56.2864 83.2425 55.8618 83.1343H55.8619Z" fill="white"/>
<path d="M54.2531 90.2868L47.265 90.6615C46.8305 90.6888 46.4243 90.8867 46.1347 91.2119C45.8451 91.5371 45.6956 91.9633 45.7186 92.3981C45.7417 92.8329 45.9354 93.2412 46.2577 93.534C46.58 93.8267 47.0049 93.9804 47.4399 93.9616L54.4279 93.5866C54.8625 93.5593 55.2687 93.3617 55.5583 93.0365C55.8479 92.7114 55.9974 92.2852 55.9744 91.8504C55.9513 91.4155 55.7576 91.0072 55.4353 90.7145C55.113 90.4217 54.6881 90.268 54.2531 90.2868Z" fill="white"/>
</g>
<defs>
<filter id="filter0_d" x="0" y="0" width="159" height="159" filterUnits="userSpaceOnUse" color-interpolation-filters="sRGB">
<feFlood flood-opacity="0" result="BackgroundImageFix"/>
<feColorMatrix in="SourceAlpha" type="matrix" values="0 0 0 0 0 0 0 0 0 0 0 0 0 0 0 0 0 0 127 0"/>
<feOffset dy="4"/>
<feGaussianBlur stdDeviation="2"/>
<feColorMatrix type="matrix" values="0 0 0 0 0 0 0 0 0 0 0 0 0 0 0 0 0 0 0.25 0"/>
<feBlend mode="normal" in2="BackgroundImageFix" result="effect1_dropShadow"/>
<feBlend mode="normal" in="SourceGraphic" in2="effect1_dropShadow" result="shape"/>
</filter>
</defs>
</svg>
