<svg width="151" height="151" viewBox="0 0 151 151" fill="none" xmlns="http://www.w3.org/2000/svg">
<path d="M4.99999 75.5C4.99999 36.5639 36.5639 5.00001 75.5 5.00001C114.436 5.00001 146 36.5639 146 75.5C146 114.436 114.436 146 75.5 146C36.5639 146 4.99999 114.436 4.99999 75.5Z" stroke="#150E5C" stroke-width="10"/>
<path d="M69.4862 103.694H68.7909V95.768C68.7909 95.629 68.7909 95.629 68.7909 95.4899C67.4003 88.2589 60.7256 85.895 56.832 85.0606C54.1899 84.5044 51.5478 83.8091 48.7667 82.8357C47.3761 82.2795 45.8465 82.6967 44.734 83.6701L43.6216 82.8357C43.4825 82.6967 43.3434 82.5576 43.3434 82.4185C43.2044 82.2795 43.2044 82.0014 43.2044 81.8623V77.1344C43.2044 76.0219 42.7872 75.0485 41.9529 74.2142C41.1185 73.5189 40.1451 72.9626 39.0327 72.9626C36.8077 72.9626 35 74.7704 35 76.9953V82.4185C35 84.6435 35.5562 86.8684 36.6687 88.8152C41.5357 97.5758 49.601 101.469 52.7993 102.582C53.0774 102.721 53.2165 102.86 53.2165 103.138V103.416H52.7993C50.9916 103.416 49.462 104.946 49.462 106.754V110.23C49.462 111.899 50.7135 113.15 52.3822 113.15H70.0424C71.5721 113.15 72.9626 111.76 72.9626 110.23V106.754C72.8236 105.224 71.2939 103.694 69.4862 103.694ZM53.9118 100.357C51.5478 99.5226 43.7606 95.9071 39.1717 87.7027C38.3374 86.1731 37.9202 84.5044 37.9202 82.6967V77.2734C37.9202 76.5781 38.4764 76.0219 39.1717 76.0219C39.4498 76.0219 39.867 76.161 40.0061 76.4391C40.1451 76.5781 40.4232 76.8562 40.4232 77.4125V82.1404C40.4232 82.6967 40.5623 83.2529 40.8404 83.8091C41.1185 84.3653 41.5357 84.7825 41.9529 85.1997L43.4825 86.3121C43.4825 86.8684 43.4825 87.4246 43.6216 87.8418C43.8997 88.9542 44.734 89.9276 45.7074 90.3448L54.1899 94.5165C54.8852 94.7946 55.7195 94.5165 55.9976 93.8212C56.2758 93.1259 55.9976 92.2916 55.3024 92.0135L46.8199 87.8418C46.5418 87.7027 46.2636 87.4246 46.1246 87.0074C45.9855 86.5903 46.1246 86.3121 46.2636 85.895C46.5418 85.4778 47.237 85.1997 47.7933 85.4778C50.7135 86.4512 53.4946 87.2855 56.2758 87.8418C59.4741 88.5371 64.8973 90.3448 66.0098 95.9071V103.694H55.9976V103.416C55.9976 102.026 55.1633 100.774 53.9118 100.357ZM70.0424 110.508C70.0424 110.647 70.0424 110.647 70.0424 110.508L52.3822 110.647C52.2431 110.647 52.2431 110.508 52.2431 110.508V107.032C52.2431 106.754 52.5212 106.475 52.7993 106.475H69.4862C69.7643 106.475 70.0424 106.754 70.0424 107.032V110.508Z" fill="white"/>
<path d="M113.289 73.1017C112.177 73.1017 111.203 73.5189 110.508 74.2141C109.813 74.9094 109.257 76.0219 109.257 77.1343V81.8623C109.257 82.0013 109.257 82.1404 109.118 82.4185C109.118 82.5576 108.979 82.6966 108.839 82.8357L107.727 83.67C106.615 82.6966 105.085 82.4185 103.694 82.8357C100.913 83.8091 98.2711 84.5044 95.629 85.0606C91.7354 85.8949 85.0607 88.2589 83.6701 95.4899C83.6701 95.629 83.6701 95.629 83.6701 95.768V103.694H82.9748C81.1671 103.694 79.6375 105.224 79.6375 107.032V110.508C79.6375 112.177 80.889 113.428 82.5577 113.428H100.218C101.748 113.428 103.138 112.038 103.138 110.508V107.032C103.138 105.224 101.608 103.694 99.8008 103.694H99.3836V103.416C99.3836 103.138 99.5226 102.999 99.8008 102.86C102.999 101.608 111.064 97.7148 115.931 89.0933C117.044 87.1465 117.6 85.0606 117.6 82.6966V77.2734C117.322 74.9094 115.514 73.1017 113.289 73.1017ZM100.079 107.032V110.508L99.9398 110.647H82.4186C82.2795 110.647 82.2795 110.508 82.2795 110.508V107.032C82.2795 106.754 82.5577 106.475 82.8358 106.475H99.5226C99.8008 106.475 100.079 106.754 100.079 107.032ZM114.541 82.6966C114.541 84.5044 114.124 86.1731 113.289 87.7027C108.839 95.629 101.469 99.1054 98.4102 100.357C97.1587 100.913 96.3243 102.165 96.3243 103.416V103.694H86.3122V95.9071C87.4247 90.3448 92.8479 88.537 96.0462 87.8418C98.8273 87.2855 101.608 86.4512 104.529 85.4778C105.085 85.3387 105.641 85.4778 106.058 85.895C106.336 86.1731 106.336 86.5902 106.197 87.0074C106.058 87.4246 105.919 87.7027 105.502 87.8418L97.0196 92.0135C96.3243 92.2916 96.0462 93.1259 96.3243 93.8212C96.6024 94.5165 97.4368 94.7946 98.1321 94.5165L106.615 90.3448C107.727 89.7886 108.422 88.9542 108.7 87.8418C108.839 87.2855 108.839 86.7293 108.839 86.1731L110.369 85.0606C110.786 84.6434 111.203 84.2263 111.482 83.67C111.76 83.1138 111.899 82.5576 111.899 82.0013V77.2734C111.899 76.9953 112.038 76.5781 112.316 76.4391C112.455 76.3 112.733 76.0219 113.289 76.0219C113.985 76.0219 114.541 76.5781 114.541 77.2734V82.6966Z" fill="white"/>
<path d="M60.8646 52.5212C61.0037 52.5212 61.1427 52.5212 61.2818 52.5212V56.1367C61.2818 57.3882 62.3942 58.5007 63.6458 58.5007H89.3713C90.7619 58.5007 91.7353 57.3882 91.7353 56.1367V48.9057C91.7353 47.6542 90.6229 46.5418 89.3713 46.5418H69.208C69.4862 45.7074 69.6252 44.734 69.6252 43.7606C69.6252 38.8936 65.7316 35 60.8646 35C55.9976 35 52.104 38.8936 52.104 43.7606C52.104 48.6276 55.9976 52.5212 60.8646 52.5212ZM89.0932 55.7195H64.0629V51.965C65.4535 51.4088 66.705 50.5744 67.6784 49.3229H89.0932V55.7195ZM60.8646 37.7811C64.202 37.7811 66.8441 40.4232 66.8441 43.7606C66.8441 45.0121 66.4269 46.1246 65.8707 47.098C65.0363 48.3495 63.7848 49.1838 62.3942 49.601C61.9771 49.7401 61.5599 49.7401 61.0037 49.7401C57.6663 49.7401 55.0242 47.098 55.0242 43.7606C54.8851 40.4232 57.5272 37.7811 60.8646 37.7811Z" fill="white"/>
<path d="M58.9179 46.6808C59.196 46.9589 59.4742 47.098 59.8913 47.098C60.3085 47.098 60.5866 46.9589 60.8647 46.6808L64.7583 42.7872C65.3146 42.231 65.3146 41.3966 64.7583 40.8404C64.2021 40.2842 63.3678 40.2842 62.8115 40.8404L59.8913 43.7606L58.9179 42.7872C58.3617 42.231 57.5274 42.231 56.9711 42.7872C56.4149 43.3434 56.4149 44.1778 56.9711 44.734L58.9179 46.6808Z" fill="white"/>
<path d="M86.0339 54.0508H86.5901C87.4245 54.0508 87.9807 53.4946 87.9807 52.6602C87.9807 51.8259 87.4245 51.2697 86.5901 51.2697H86.0339C85.1995 51.2697 84.6433 51.8259 84.6433 52.6602C84.6433 53.4946 85.1995 54.0508 86.0339 54.0508Z" fill="white"/>
<path d="M65.4534 52.6602C65.4534 53.4946 66.0096 54.0508 66.8439 54.0508H67.9564C68.7907 54.0508 69.347 53.4946 69.347 52.6602C69.347 51.8259 68.7907 51.2697 67.9564 51.2697H66.8439C66.1487 51.2697 65.4534 51.8259 65.4534 52.6602Z" fill="white"/>
<path d="M71.7109 54.0508H72.8233C73.6577 54.0508 74.2139 53.4946 74.2139 52.6602C74.2139 51.8259 73.6577 51.2697 72.8233 51.2697H71.7109C70.8765 51.2697 70.3203 51.8259 70.3203 52.6602C70.3203 53.4946 70.8765 54.0508 71.7109 54.0508Z" fill="white"/>
<path d="M85.895 67.4004H86.4512C87.2855 67.4004 87.8418 66.8442 87.8418 66.0098C87.8418 65.1755 87.2855 64.6193 86.4512 64.6193H85.895C85.0606 64.6193 84.5044 65.1755 84.5044 66.0098C84.5044 66.8442 85.0606 67.4004 85.895 67.4004Z" fill="white"/>
<path d="M66.8439 67.4004H67.9564C68.7907 67.4004 69.347 66.8442 69.347 66.0098C69.347 65.1755 68.7907 64.6193 67.9564 64.6193H66.8439C66.0096 64.6193 65.4534 65.1755 65.4534 66.0098C65.4534 66.8442 66.0096 67.4004 66.8439 67.4004Z" fill="white"/>
<path d="M71.5722 67.4004H72.6847C73.519 67.4004 74.0752 66.8442 74.0752 66.0098C74.0752 65.1755 73.519 64.6193 72.6847 64.6193H71.5722C70.7379 64.6193 70.1816 65.1755 70.1816 66.0098C70.1816 66.8442 70.7379 67.4004 71.5722 67.4004Z" fill="white"/>
<path d="M85.7558 80.8889H86.312C87.1464 80.8889 87.7026 80.3327 87.7026 79.4984C87.7026 78.664 87.1464 78.1078 86.312 78.1078H85.7558C84.9215 78.1078 84.3652 78.664 84.3652 79.4984C84.3652 80.3327 85.0605 80.8889 85.7558 80.8889Z" fill="white"/>
<path d="M66.705 80.8889H67.8175C68.6518 80.8889 69.2081 80.3327 69.2081 79.4984C69.2081 78.664 68.6518 78.1078 67.8175 78.1078H66.705C65.8707 78.1078 65.3145 78.664 65.3145 79.4984C65.3145 80.3327 65.8707 80.8889 66.705 80.8889Z" fill="white"/>
<path d="M71.4331 80.8889H72.5455C73.3799 80.8889 73.9361 80.3327 73.9361 79.4984C73.9361 78.664 73.3799 78.1078 72.5455 78.1078H71.4331C70.5987 78.1078 70.0425 78.664 70.0425 79.4984C70.0425 80.3327 70.7378 80.8889 71.4331 80.8889Z" fill="white"/>
<path d="M91.8743 62.1162C91.8743 60.8647 90.7619 59.7522 89.5104 59.7522H63.6457C62.3942 59.7522 61.2817 60.8647 61.2817 62.1162V69.3471C61.2817 70.5987 62.3942 71.7111 63.6457 71.7111H89.3713C90.6228 71.7111 91.7353 70.5987 91.7353 69.3471V62.1162H91.8743ZM89.0932 69.069H64.0629V62.5333H89.0932V69.069Z" fill="white"/>
<path d="M89.5104 72.9626H63.6457C62.3942 72.9626 61.2817 74.0751 61.2817 75.3266V82.5576C61.2817 83.8091 62.3942 84.9216 63.6457 84.9216H89.3713C90.6228 84.9216 91.7353 83.8091 91.7353 82.5576V75.3266C91.8743 74.0751 90.7619 72.9626 89.5104 72.9626ZM89.0932 82.2795H64.0629V75.7438H89.0932V82.2795Z" fill="white"/>
</svg>
