<svg width="159" height="159" viewBox="0 0 159 159" fill="none" xmlns="http://www.w3.org/2000/svg">
<g filter="url(#filter0_d)">
<path d="M8.99999 75.5C8.99999 36.5639 40.5639 5.00001 79.5 5.00001C118.436 5.00001 150 36.5639 150 75.5C150 114.436 118.436 146 79.5 146C40.5639 146 8.99999 114.436 8.99999 75.5Z" stroke="#150E5C" stroke-width="10"/>
<path d="M58.3974 74.8593V85.6577C58.4013 87.9937 59.2561 90.2483 60.8019 91.9997C62.3478 93.7512 64.4787 94.8794 66.7962 95.1735V97.6559H61.9969C59.7702 97.6584 57.6354 98.5441 56.0609 100.119C54.4864 101.693 53.6007 103.828 53.5981 106.055V112.054H55.9978V106.055C55.9997 104.464 56.6324 102.939 57.757 101.815C58.8816 100.69 60.4064 100.057 61.9969 100.056H66.9666C67.2284 101.084 67.8257 101.997 68.664 102.648C69.5022 103.3 70.5337 103.654 71.5955 103.654C72.6572 103.654 73.6887 103.3 74.527 102.648C75.3652 101.997 75.9625 101.084 76.2244 100.056H81.194C82.7845 100.057 84.3093 100.69 85.4339 101.815C86.5586 102.939 87.1912 104.464 87.1931 106.055V112.054H89.5928V106.055C89.5902 103.828 88.7046 101.693 87.13 100.119C85.5555 98.5441 83.4207 97.6584 81.194 97.6559H76.3947V95.1735C78.7122 94.8794 80.8432 93.7512 82.389 91.9997C83.9348 90.2483 84.7896 87.9937 84.7935 85.6577V76.0591C86.7022 76.0572 88.5322 75.2981 89.8818 73.9485C91.2314 72.5988 91.9905 70.7689 91.9924 68.8602V62.8611C91.9924 62.5429 91.866 62.2377 91.641 62.0127C91.416 61.7877 91.1108 61.6613 90.7926 61.6613H71.5955C68.0964 61.6654 64.7418 63.0572 62.2676 65.5314C59.7934 68.0056 58.4016 71.3602 58.3974 74.8593ZM71.5955 101.255C70.959 101.255 70.3487 101.003 69.8987 100.553C69.4486 100.102 69.1958 99.4921 69.1958 98.8557V95.2562H73.9951V98.8557C73.9951 99.4921 73.7423 100.102 73.2923 100.553C72.8422 101.003 72.2319 101.255 71.5955 101.255ZM75.1949 92.8566H67.996C66.0873 92.8547 64.2573 92.0956 62.9077 90.746C61.558 89.3963 60.799 87.5664 60.7971 85.6577V83.258H61.9969C61.9969 83.8945 62.2497 84.5048 62.6997 84.9548C63.1498 85.4049 63.7601 85.6577 64.3965 85.6577H67.996C68.6324 85.6577 69.2428 85.4049 69.6928 84.9548C70.1428 84.5048 70.3956 83.8945 70.3956 83.258H72.7953C72.7953 83.8945 73.0481 84.5048 73.4981 84.9548C73.9481 85.4049 74.5585 85.6577 75.1949 85.6577H78.7944C79.4308 85.6577 80.0412 85.4049 80.4912 84.9548C80.9412 84.5048 81.194 83.8945 81.194 83.258H82.3939V85.6577C82.3919 87.5664 81.6329 89.3963 80.2832 90.746C78.9336 92.0956 77.1036 92.8547 75.1949 92.8566ZM64.3965 83.258V80.8584H67.996V83.258H64.3965ZM75.1949 83.258V80.8584H78.7944V83.258H75.1949ZM82.3939 80.8584H81.194C81.194 80.222 80.9412 79.6116 80.4912 79.1616C80.0412 78.7116 79.4308 78.4587 78.7944 78.4587H75.1949C74.5585 78.4587 73.9481 78.7116 73.4981 79.1616C73.0481 79.6116 72.7953 80.222 72.7953 80.8584H70.3956C70.3956 80.222 70.1428 79.6116 69.6928 79.1616C69.2428 78.7116 68.6324 78.4587 67.996 78.4587H64.3965C63.7601 78.4587 63.1498 78.7116 62.6997 79.1616C62.2497 79.6116 61.9969 80.222 61.9969 80.8584H60.7971V76.0591H82.3939V80.8584ZM79.3523 73.6595H76.2328L77.1266 72.3193C78.7707 69.8593 79.7439 67.0125 79.9498 64.0609H83.5409C83.3412 66.5371 82.5123 68.9213 81.1328 70.9875L79.3523 73.6595ZM89.5928 68.8602C89.5928 70.133 89.0871 71.3537 88.1871 72.2538C87.2871 73.1538 86.0663 73.6595 84.7935 73.6595H82.2355L83.1293 72.3193C84.7721 69.8589 85.7441 67.0122 85.9489 64.0609H89.5928V68.8602ZM71.5955 64.0609H77.5418C77.342 66.5371 76.5132 68.9213 75.1337 70.9875L73.3532 73.6595H60.8643C61.1624 71.0211 62.421 68.5846 64.4 66.8144C66.3791 65.0442 68.9403 64.0641 71.5955 64.0609Z" fill="white"/>
<path d="M93.2953 64.7736C93.1931 65.0036 93.1658 65.2599 93.2172 65.5063C93.2687 65.7526 93.3963 65.9766 93.5821 66.1464C93.7678 66.3162 94.0023 66.4234 94.2523 66.4526C94.5022 66.4818 94.7551 66.4317 94.975 66.3094L100.165 63.4298C102.949 64.3727 105.981 64.2645 108.689 63.1258C111.398 61.9871 113.597 59.8965 114.87 57.2483C116.144 54.6002 116.405 51.5775 115.603 48.7505C114.801 45.9234 112.993 43.4874 110.519 41.9019C108.045 40.3164 105.076 39.691 102.173 40.1437C99.2694 40.5963 96.632 42.0957 94.758 44.3591C92.884 46.6225 91.903 49.4934 92 52.4303C92.097 55.3672 93.2653 58.1671 95.2846 60.3019L93.2953 64.7736ZM94.3919 52.0627C94.3868 50.0049 95.0416 47.9996 96.26 46.3413C97.4784 44.683 99.1964 43.459 101.162 42.8489C103.127 42.2388 105.236 42.2749 107.179 42.9517C109.123 43.6285 110.798 44.9105 111.959 46.6095C113.12 48.3085 113.706 50.3349 113.631 52.3913C113.555 54.4478 112.823 56.4259 111.54 58.0353C110.258 59.6447 108.493 60.8006 106.506 61.3334C104.518 61.8661 102.412 61.7477 100.497 60.9954C100.332 60.931 100.155 60.9037 99.979 60.9155C99.8027 60.9273 99.6312 60.978 99.4768 61.0638L96.9451 62.4699L97.815 60.5154C97.9173 60.2852 97.9446 60.0286 97.8929 59.782C97.8412 59.5355 97.7132 59.3114 97.527 59.1416C96.5422 58.2435 95.7549 57.1505 95.2152 55.9318C94.6755 54.7131 94.3951 53.3955 94.3919 52.0627Z" fill="white"/>
<path d="M54.7979 61.6612C56.085 61.6629 57.3619 61.4333 58.5677 60.9833L62.7239 62.7639C62.8731 62.8285 63.0341 62.8616 63.1967 62.8611C63.3686 62.8611 63.5386 62.8241 63.695 62.7527C63.8515 62.6813 63.9908 62.5771 64.1034 62.4472C64.216 62.3172 64.2994 62.1646 64.3479 61.9996C64.3964 61.8346 64.4089 61.6611 64.3845 61.4909L63.7306 56.9123C64.9497 55.1308 65.6002 53.0216 65.5963 50.8628C65.5963 48.7271 64.963 46.6394 63.7764 44.8636C62.5899 43.0878 60.9034 41.7037 58.9303 40.8864C56.9571 40.0691 54.7859 39.8553 52.6912 40.2719C50.5966 40.6886 48.6725 41.7171 47.1623 43.2272C45.6521 44.7374 44.6237 46.6615 44.207 48.7562C43.7903 50.8509 44.0042 53.0221 44.8215 54.9952C45.6388 56.9684 47.0229 58.6548 48.7986 59.8414C50.5744 61.0279 52.6622 61.6612 54.7979 61.6612ZM54.7979 42.4641C57.0246 42.4666 59.1594 43.3523 60.7339 44.9268C62.3084 46.5014 63.1941 48.6361 63.1967 50.8628C63.1991 52.6761 62.6093 54.4405 61.5169 55.8877C61.3257 56.142 61.2432 56.4617 61.2877 56.7768L61.7089 59.7175L59.0561 58.5813C58.9067 58.5173 58.7459 58.4842 58.5833 58.4842C58.4208 58.4842 58.26 58.5173 58.1106 58.5813C56.9653 59.0726 55.725 59.3029 54.4796 59.2555C53.2343 59.2081 52.0151 58.8841 50.9105 58.307C49.8059 57.73 48.8435 56.9143 48.0932 55.9192C47.3429 54.9241 46.8235 53.7745 46.5726 52.5538C46.3217 51.333 46.3456 50.0717 46.6426 48.8614C46.9395 47.651 47.5022 46.5219 48.2896 45.556C49.0771 44.59 50.0697 43.8114 51.1954 43.2767C52.3211 42.7419 53.5516 42.4643 54.7979 42.4641Z" fill="white"/>
<path d="M102.191 50.8629H102.791V48.4632H102.191C102.032 48.4632 101.879 48.4 101.767 48.2875C101.654 48.175 101.591 48.0224 101.591 47.8633C101.591 47.7042 101.654 47.5516 101.767 47.4391C101.879 47.3266 102.032 47.2634 102.191 47.2634H105.79C105.95 47.2634 106.102 47.3266 106.215 47.4391C106.327 47.5516 106.39 47.7042 106.39 47.8633C106.391 48.5887 106.212 49.303 105.87 49.9426C105.528 50.5822 105.033 51.1271 104.429 51.5288C103.925 51.8642 103.511 52.3191 103.226 52.8529C102.94 53.3867 102.791 53.9829 102.791 54.5883V55.6622H105.191V54.5883C105.19 54.3779 105.242 54.1707 105.342 53.9852C105.441 53.7997 105.585 53.6417 105.76 53.5253C106.693 52.9047 107.458 52.0629 107.987 51.075C108.515 50.0871 108.791 48.9838 108.79 47.8633C108.79 47.0678 108.474 46.3048 107.911 45.7423C107.349 45.1798 106.586 44.8638 105.79 44.8638H102.191C101.395 44.8638 100.632 45.1798 100.07 45.7423C99.5074 46.3048 99.1914 47.0678 99.1914 47.8633C99.1914 48.6589 99.5074 49.4218 100.07 49.9843C100.632 50.5469 101.395 50.8629 102.191 50.8629Z" fill="white"/>
<path d="M105.19 56.8619H102.791V59.2616H105.19V56.8619Z" fill="white"/>
<path d="M52.9981 49.663H53.598V47.2634H52.9981C52.839 47.2634 52.6864 47.2002 52.5739 47.0877C52.4614 46.9752 52.3982 46.8226 52.3982 46.6635C52.3982 46.5044 52.4614 46.3518 52.5739 46.2393C52.6864 46.1268 52.839 46.0636 52.9981 46.0636H56.5976C56.7567 46.0636 56.9092 46.1268 57.0218 46.2393C57.1343 46.3518 57.1975 46.5044 57.1975 46.6635C57.1983 47.3889 57.0196 48.1032 56.6773 48.7428C56.335 49.3823 55.8398 49.9272 55.2358 50.3289C54.7317 50.6644 54.3185 51.1193 54.0327 51.6531C53.747 52.1869 53.5976 52.783 53.598 53.3885V54.4623H55.9976V53.3885C55.9976 53.178 56.0496 52.9708 56.149 52.7853C56.2484 52.5999 56.3922 52.4419 56.5676 52.3254C57.5004 51.7049 58.2652 50.8631 58.7938 49.8752C59.3224 48.8873 59.5984 47.7839 59.5971 46.6635C59.5971 45.868 59.2811 45.105 58.7186 44.5425C58.156 43.98 57.3931 43.6639 56.5976 43.6639H52.9981C52.2026 43.6639 51.4396 43.98 50.8771 44.5425C50.3146 45.105 49.9985 45.868 49.9985 46.6635C49.9985 47.459 50.3146 48.222 50.8771 48.7845C51.4396 49.347 52.2026 49.663 52.9981 49.663Z" fill="white"/>
<path d="M55.9978 55.6621H53.5981V58.0618H55.9978V55.6621Z" fill="white"/>
<path d="M73.4984 89.2571H69.6925L68.8443 88.4088L67.1477 90.1054L68.3475 91.3052C68.5725 91.5302 68.8776 91.6567 69.1958 91.6567H73.9951C74.3133 91.6567 74.6184 91.5302 74.8434 91.3052L76.0432 90.1054L74.3466 88.4088L73.4984 89.2571Z" fill="white"/>
<path d="M105.19 73.6594C105.19 74.3713 105.402 75.0672 105.797 75.6592C106.193 76.2511 106.755 76.7124 107.412 76.9849C108.07 77.2573 108.794 77.3286 109.492 77.1897C110.19 77.0508 110.832 76.708 111.335 76.2046C111.838 75.7012 112.181 75.0598 112.32 74.3616C112.459 73.6634 112.388 72.9397 112.115 72.2819C111.843 71.6242 111.382 71.0621 110.79 70.6666C110.198 70.271 109.502 70.0599 108.79 70.0599C107.835 70.0599 106.92 70.4392 106.245 71.1142C105.57 71.7892 105.19 72.7048 105.19 73.6594ZM109.99 73.6594C109.99 73.8967 109.919 74.1287 109.788 74.326C109.656 74.5233 109.468 74.6771 109.249 74.7679C109.03 74.8587 108.789 74.8825 108.556 74.8362C108.323 74.7899 108.109 74.6756 107.941 74.5078C107.774 74.34 107.659 74.1262 107.613 73.8935C107.567 73.6607 107.591 73.4195 107.681 73.2002C107.772 72.981 107.926 72.7936 108.123 72.6618C108.321 72.5299 108.553 72.4596 108.79 72.4596C109.108 72.4596 109.413 72.586 109.638 72.811C109.863 73.036 109.99 73.3412 109.99 73.6594Z" fill="white"/>
<path d="M77.5946 55.6621C78.3065 55.6621 79.0024 55.451 79.5943 55.0554C80.1863 54.6599 80.6476 54.0978 80.92 53.4401C81.1925 52.7823 81.2638 52.0586 81.1249 51.3604C80.986 50.6622 80.6432 50.0208 80.1398 49.5174C79.6364 49.014 78.995 48.6712 78.2968 48.5323C77.5986 48.3934 76.8748 48.4647 76.2171 48.7371C75.5594 49.0096 74.9972 49.4709 74.6017 50.0628C74.2062 50.6548 73.9951 51.3507 73.9951 52.0626C73.9951 53.0172 74.3743 53.9328 75.0494 54.6078C75.7244 55.2828 76.6399 55.6621 77.5946 55.6621ZM77.5946 50.8628C77.8319 50.8628 78.0639 50.9331 78.2612 51.065C78.4585 51.1968 78.6123 51.3842 78.7031 51.6034C78.7939 51.8227 78.8176 52.0639 78.7713 52.2967C78.7251 52.5294 78.6108 52.7432 78.443 52.911C78.2752 53.0788 78.0614 53.1931 77.8287 53.2394C77.5959 53.2857 77.3547 53.2619 77.1354 53.1711C76.9162 53.0803 76.7288 52.9265 76.597 52.7292C76.4651 52.5319 76.3948 52.2999 76.3948 52.0626C76.3948 51.7444 76.5212 51.4392 76.7462 51.2142C76.9712 50.9892 77.2764 50.8628 77.5946 50.8628Z" fill="white"/>
<path d="M49.9986 65.2607C49.2867 65.2607 48.5908 65.4718 47.9989 65.8674C47.407 66.2629 46.9456 66.825 46.6732 67.4828C46.4007 68.1405 46.3294 68.8642 46.4683 69.5624C46.6072 70.2607 46.95 70.902 47.4534 71.4054C47.9568 71.9088 48.5982 72.2516 49.2964 72.3905C49.9946 72.5294 50.7184 72.4581 51.3761 72.1857C52.0338 71.9132 52.596 71.4519 52.9915 70.86C53.387 70.268 53.5981 69.5721 53.5981 68.8602C53.5981 67.9056 53.2189 66.99 52.5438 66.315C51.8688 65.64 50.9533 65.2607 49.9986 65.2607ZM49.9986 70.06C49.7613 70.06 49.5294 69.9897 49.332 69.8578C49.1347 69.726 48.981 69.5386 48.8901 69.3194C48.7993 69.1001 48.7756 68.8589 48.8219 68.6261C48.8682 68.3934 48.9824 68.1796 49.1502 68.0118C49.318 67.844 49.5318 67.7297 49.7646 67.6834C49.9973 67.6371 50.2385 67.6609 50.4578 67.7517C50.677 67.8425 50.8644 67.9963 50.9962 68.1936C51.1281 68.3909 51.1985 68.6229 51.1985 68.8602C51.1985 69.1784 51.072 69.4836 50.847 69.7086C50.622 69.9336 50.3168 70.06 49.9986 70.06Z" fill="white"/>
<path d="M103.991 79.6585C102.689 79.6593 101.397 79.8733 100.164 80.292L94.9739 77.4125C94.7539 77.2901 94.5011 77.24 94.2511 77.2692C94.0011 77.2985 93.7667 77.4056 93.5809 77.5754C93.3952 77.7453 93.2675 77.9692 93.216 78.2156C93.1646 78.4619 93.1919 78.7182 93.2941 78.9482L95.2822 83.4224C93.3899 85.4295 92.2478 88.0279 92.0486 90.7792C91.8494 93.5304 92.6053 96.2662 94.1887 98.525C95.7721 100.784 98.0862 102.427 100.74 103.178C103.395 103.929 106.227 103.742 108.759 102.647C111.291 101.553 113.368 99.6186 114.64 97.1707C115.912 94.7229 116.3 91.9113 115.74 89.2103C115.18 86.5093 113.705 84.0842 111.565 82.3441C109.424 80.6041 106.749 79.6555 103.991 79.6585ZM103.991 101.255C102.055 101.258 100.164 100.674 98.5663 99.5814C96.9686 98.4886 95.7392 96.9378 95.0397 95.133C94.3403 93.3282 94.2035 91.3539 94.6475 89.4699C95.0915 87.5859 96.0953 85.8804 97.5271 84.5778C97.7132 84.408 97.8412 84.184 97.8929 83.9374C97.9446 83.6908 97.9173 83.4342 97.815 83.204L96.9452 81.2495L99.4768 82.6557C99.6313 82.7415 99.8028 82.7921 99.9791 82.8039C100.155 82.8157 100.332 82.7885 100.497 82.7241C101.811 82.207 103.224 81.9866 104.634 82.0785C106.044 82.1704 107.416 82.5724 108.652 83.2558C109.889 83.9392 110.959 84.8871 111.787 86.0319C112.615 87.1766 113.18 88.4901 113.442 89.8784C113.704 91.2667 113.656 92.6957 113.301 94.0633C112.947 95.431 112.295 96.7036 111.393 97.7903C110.49 98.877 109.358 99.7511 108.079 100.35C106.799 100.949 105.403 101.258 103.991 101.255Z" fill="white"/>
<path d="M105.79 84.4578H102.191C101.395 84.4578 100.632 84.7738 100.07 85.3363C99.5074 85.8988 99.1914 86.6618 99.1914 87.4573C99.1914 88.2528 99.5074 89.0158 100.07 89.5783C100.632 90.1408 101.395 90.4569 102.191 90.4569H102.791V88.0572H102.191C102.032 88.0572 101.879 87.994 101.767 87.8815C101.654 87.769 101.591 87.6164 101.591 87.4573C101.591 87.2982 101.654 87.1456 101.767 87.0331C101.879 86.9206 102.032 86.8574 102.191 86.8574H105.79C105.95 86.8574 106.102 86.9206 106.215 87.0331C106.327 87.1456 106.39 87.2982 106.39 87.4573C106.391 88.1827 106.212 88.897 105.87 89.5366C105.528 90.1761 105.033 90.7211 104.429 91.1228C103.925 91.4582 103.511 91.9131 103.226 92.4469C102.94 92.9807 102.791 93.5769 102.791 94.1823V95.2562H105.191V94.1763C105.19 93.9659 105.242 93.7586 105.342 93.5732C105.441 93.3877 105.585 93.2297 105.76 93.1133C106.692 92.4932 107.457 91.6524 107.985 90.6656C108.514 89.6789 108.79 88.5767 108.79 87.4573C108.79 86.6618 108.474 85.8988 107.911 85.3363C107.349 84.7738 106.586 84.4578 105.79 84.4578Z" fill="white"/>
<path d="M105.19 96.4561H102.791V98.8557H105.19V96.4561Z" fill="white"/>
</g>
<defs>
<filter id="filter0_d" x="0" y="0" width="159" height="159" filterUnits="userSpaceOnUse" color-interpolation-filters="sRGB">
<feFlood flood-opacity="0" result="BackgroundImageFix"/>
<feColorMatrix in="SourceAlpha" type="matrix" values="0 0 0 0 0 0 0 0 0 0 0 0 0 0 0 0 0 0 127 0"/>
<feOffset dy="4"/>
<feGaussianBlur stdDeviation="2"/>
<feColorMatrix type="matrix" values="0 0 0 0 0 0 0 0 0 0 0 0 0 0 0 0 0 0 0.25 0"/>
<feBlend mode="normal" in2="BackgroundImageFix" result="effect1_dropShadow"/>
<feBlend mode="normal" in="SourceGraphic" in2="effect1_dropShadow" result="shape"/>
</filter>
</defs>
</svg>
