<svg width="151" height="151" viewBox="0 0 151 151" fill="none" xmlns="http://www.w3.org/2000/svg">
<path d="M4.99999 75.5C4.99999 36.5639 36.5639 5.00001 75.5 5.00001C114.436 5.00001 146 36.5639 146 75.5C146 114.436 114.436 146 75.5 146C36.5639 146 4.99999 114.436 4.99999 75.5Z" stroke="#150E5C" stroke-width="10"/>
<path d="M97.6735 51.9005V43.2383C97.6735 42.8088 97.503 42.397 97.1993 42.0934C96.8957 41.7897 96.4838 41.6191 96.0544 41.6191C95.625 41.6191 95.2132 41.7897 94.9095 42.0934C94.6059 42.397 94.4353 42.8088 94.4353 43.2383V62.6676C94.4353 63.097 94.6059 63.5089 94.9095 63.8125C95.2132 64.1162 95.625 64.2867 96.0544 64.2867C96.4838 64.2867 96.8957 64.1162 97.1993 63.8125C97.503 63.5089 97.6735 63.097 97.6735 62.6676V56.4502C102.636 61.8596 105.5 68.8652 105.749 76.2016C105.999 83.5381 103.616 90.7219 99.0324 96.4555C94.4487 102.189 87.9657 106.095 80.7544 107.467C73.5431 108.839 66.0788 107.587 59.7096 103.938C53.3404 100.288 48.4861 94.4815 46.0235 87.5662C43.5609 80.6509 43.6523 73.0829 46.2812 66.2291C48.91 59.3752 53.9031 53.6874 60.3585 50.1927C66.814 46.698 74.3063 45.6268 81.4824 47.1727V59.4294C81.4824 59.8588 81.653 60.2706 81.9566 60.5743C82.2603 60.8779 82.6721 61.0485 83.1015 61.0485C83.5309 61.0485 83.9428 60.8779 84.2464 60.5743C84.55 60.2706 84.7206 59.8588 84.7206 59.4294V43.2383C84.7206 42.8088 84.55 42.397 84.2464 42.0934C83.9428 41.7897 83.5309 41.6191 83.1015 41.6191C82.6721 41.6191 82.2603 41.7897 81.9566 42.0934C81.653 42.397 81.4824 42.8088 81.4824 43.2383V43.8535C79.3477 43.4453 77.1793 43.2393 75.0059 43.2383C67.0583 43.2372 59.3615 46.0203 53.2524 51.104C47.1434 56.1877 43.0082 63.2508 41.5652 71.0663C40.1222 78.8818 41.4626 86.9559 45.3536 93.8859C49.2445 100.816 55.4401 106.164 62.8641 109.001C70.2881 111.838 78.4714 111.985 85.9923 109.416C93.5132 106.847 99.8966 101.724 104.034 94.9381C108.17 88.1521 109.799 80.1312 108.638 72.269C107.476 64.4068 103.596 57.2 97.6735 51.9005Z" fill="white"/>
<path d="M62.8627 72.3823C65.0971 72.3823 66.9105 75.0376 66.9105 77.2396C66.9105 77.669 67.081 78.0809 67.3847 78.3845C67.6883 78.6881 68.1002 78.8587 68.5296 78.8587C68.959 78.8587 69.3708 78.6881 69.6745 78.3845C69.9781 78.0809 70.1487 77.669 70.1487 77.2396C70.1487 73.4185 67.04 69.144 62.8627 69.144C58.6854 69.144 55.5767 73.4185 55.5767 77.2396C55.5767 77.669 55.7472 78.0809 56.0509 78.3845C56.3545 78.6881 56.7664 78.8587 57.1958 78.8587C57.6252 78.8587 58.037 78.6881 58.3407 78.3845C58.6443 78.0809 58.8149 77.669 58.8149 77.2396C58.8149 75.0376 60.6283 72.3823 62.8627 72.3823Z" fill="white"/>
<path d="M79.8638 77.2396C79.8638 77.669 80.0344 78.0809 80.338 78.3845C80.6416 78.6881 81.0535 78.8587 81.4829 78.8587C81.9123 78.8587 82.3241 78.6881 82.6278 78.3845C82.9314 78.0809 83.102 77.669 83.102 77.2396C83.102 75.0376 84.9154 72.3823 87.1498 72.3823C89.3842 72.3823 91.1976 75.0376 91.1976 77.2396C91.1976 77.669 91.3682 78.0809 91.6718 78.3845C91.9754 78.6881 92.3873 78.8587 92.8167 78.8587C93.2461 78.8587 93.6579 78.6881 93.9616 78.3845C94.2652 78.0809 94.4358 77.669 94.4358 77.2396C94.4358 73.4185 91.3271 69.144 87.1498 69.144C82.9725 69.144 79.8638 73.4185 79.8638 77.2396Z" fill="white"/>
<path d="M75.0058 98.2882C78.4874 98.3607 81.9073 97.3623 84.8031 95.4279C87.6988 93.4935 89.9307 90.7166 91.1969 87.4725C91.3343 87.0645 91.304 86.6187 91.1127 86.2331C90.9214 85.8475 90.5848 85.5536 90.1769 85.4162C89.7689 85.2788 89.3231 85.3091 88.9375 85.5004C88.5518 85.6917 88.258 86.0283 88.1206 86.4363C87.1041 89.0592 85.2938 91.2992 82.9426 92.8434C80.5914 94.3877 77.8166 95.1591 75.0058 95.0499C72.222 95.125 69.4832 94.3376 67.1644 92.7956C64.8456 91.2536 63.0602 89.0324 62.0528 86.4363C61.9154 86.0283 61.6216 85.6917 61.236 85.5004C60.8503 85.3091 60.4045 85.2788 59.9966 85.4162C59.5886 85.5536 59.252 85.8475 59.0607 86.2331C58.8694 86.6187 58.8391 87.0645 58.9765 87.4725C60.2331 90.6903 62.4401 93.449 65.3037 95.3812C68.1672 97.3134 71.5515 98.3274 75.0058 98.2882Z" fill="white"/>
<path d="M89.5781 61.0485C90.0075 61.0485 90.4193 60.8779 90.723 60.5743C91.0266 60.2706 91.1972 59.8588 91.1972 59.4294V41.6191C91.1972 41.1897 91.0266 40.7779 90.723 40.4742C90.4193 40.1706 90.0075 40 89.5781 40C89.1487 40 88.7369 40.1706 88.4332 40.4742C88.1296 40.7779 87.959 41.1897 87.959 41.6191V59.4294C87.959 59.8588 88.1296 60.2706 88.4332 60.5743C88.7369 60.8779 89.1487 61.0485 89.5781 61.0485Z" fill="white"/>
</svg>
