<svg width="151" height="151" viewBox="0 0 151 151" fill="none" xmlns="http://www.w3.org/2000/svg">
<path d="M4.99999 75.5001C4.99999 36.564 36.5639 5.00013 75.5 5.00013C114.436 5.00013 146 36.5641 146 75.5001C146 114.436 114.436 146 75.5 146C36.5639 146 4.99999 114.436 4.99999 75.5001Z" stroke="#150E5C" stroke-width="10"/>
<path d="M111.619 73.488C107.218 73.3341 102.913 73.981 98.8673 75.3631C98.7868 71.0425 97.9188 66.807 96.2781 62.7464C96.01 62.0834 95.2562 61.763 94.5919 62.0307C92.0292 63.0661 89.6292 64.3738 87.4103 65.9374C84.7467 60.6839 81.2737 55.8964 77.0668 51.6912C76.5609 51.1854 75.7411 51.1854 75.2355 51.6913C71.0268 55.9 67.5541 60.6867 64.8925 65.9354C62.6749 64.3728 60.2758 63.0657 57.7139 62.0307C57.0503 61.7628 56.2959 62.0832 56.0278 62.7464C54.3844 66.8136 53.5159 71.0562 53.4378 75.3841C49.4476 74.0128 45.1477 73.3325 40.6865 73.488C39.9716 73.5131 39.4124 74.1128 39.4373 74.8276C40.1067 93.9938 55.9105 109.129 74.9413 109.129C75.3431 109.129 75.7482 109.122 76.1527 109.109C76.5581 109.122 76.9614 109.129 77.3642 109.129C96.3933 109.129 112.199 93.9928 112.868 74.8276C112.893 74.1128 112.333 73.513 111.619 73.488ZM57.9584 64.9512C61.608 66.5941 64.8785 68.8502 67.6955 71.6703C70.7197 74.6928 73.0915 78.2251 74.7553 82.1735C73.6454 85.0407 72.9172 88.0042 72.5777 91.0274C68.7597 84.5443 62.9488 79.3926 56.0241 76.387C55.9816 72.4822 56.6308 68.6449 57.9584 64.9512ZM42.0984 76.0566C50.4101 76.0921 58.286 79.2078 64.3997 84.9092C70.5137 90.6106 74.1714 98.2488 74.7863 106.539C57.6519 106.458 43.3738 93.1436 42.0984 76.0566ZM69.5273 69.8388C68.7151 69.0257 67.8672 68.2573 66.9867 67.5321C69.3591 62.7481 72.4357 58.3599 76.1515 54.4611C79.8653 58.3571 82.9417 62.7457 85.3159 67.5341C84.4363 68.2586 83.5891 69.026 82.7775 69.8382C80.0764 72.5378 77.8567 75.617 76.1524 79.0169C74.4495 75.6187 72.2299 72.5397 69.5273 69.8388ZM76.1474 99.4024C75.8106 98.2028 75.413 97.0296 74.9575 95.8861C74.9491 95.6095 74.9448 95.317 74.9448 94.9963C74.9448 90.7515 75.7551 86.5951 77.353 82.6422C79.0267 78.5006 81.4679 74.8091 84.6093 71.6697C87.4275 68.8497 90.6985 66.5939 94.3478 64.9512C95.6723 68.6369 96.3211 72.4654 96.2818 76.3613C92.5929 77.9572 89.1658 80.1919 86.1392 83.0144C81.2941 87.5323 77.8813 93.179 76.1474 99.4024ZM77.5189 106.539C78.1339 98.2488 81.7912 90.6106 87.9054 84.909C94.0196 79.2073 101.894 76.0916 110.207 76.0564C108.931 93.1446 94.6547 106.46 77.5189 106.539Z" fill="white"/>
</svg>
