<svg width="151" height="151" viewBox="0 0 151 151" fill="none" xmlns="http://www.w3.org/2000/svg">
<path d="M4.99999 75.5C4.99999 36.5639 36.5639 5.00001 75.5 5.00001C114.436 5.00001 146 36.5639 146 75.5C146 114.436 114.436 146 75.5 146C36.5639 146 4.99999 114.436 4.99999 75.5Z" stroke="#150E5C" stroke-width="10"/>
<path d="M111.619 73.4879C107.218 73.334 102.913 73.9808 98.8673 75.363C98.7868 71.0424 97.9188 66.8069 96.2781 62.7463C96.01 62.0833 95.2562 61.7629 94.5919 62.0306C92.0292 63.066 89.6292 64.3737 87.4103 65.9373C84.7467 60.6837 81.2737 55.8963 77.0668 51.691C76.5609 51.1853 75.7411 51.1853 75.2355 51.6912C71.0268 55.8999 67.5541 60.6866 64.8925 65.9353C62.6749 64.3727 60.2758 63.0656 57.7139 62.0306C57.0503 61.7627 56.2959 62.0831 56.0278 62.7463C54.3844 66.8135 53.5159 71.056 53.4378 75.3839C49.4476 74.0127 45.1477 73.3324 40.6865 73.4879C39.9716 73.513 39.4124 74.1126 39.4373 74.8275C40.1067 93.9937 55.9105 109.129 74.9413 109.129C75.3431 109.129 75.7482 109.122 76.1527 109.109C76.5581 109.122 76.9614 109.129 77.3642 109.129C96.3933 109.129 112.199 93.9927 112.868 74.8275C112.893 74.1126 112.333 73.5129 111.619 73.4879ZM57.9584 64.9511C61.608 66.594 64.8785 68.8501 67.6955 71.6702C70.7197 74.6926 73.0915 78.225 74.7553 82.1734C73.6454 85.0406 72.9172 88.0041 72.5777 91.0273C68.7597 84.5442 62.9488 79.3924 56.0241 76.3869C55.9816 72.4821 56.6308 68.6448 57.9584 64.9511ZM42.0984 76.0564C50.4101 76.092 58.286 79.2077 64.3997 84.909C70.5137 90.6105 74.1714 98.2487 74.7863 106.539C57.6519 106.458 43.3738 93.1435 42.0984 76.0564ZM69.5273 69.8387C68.7151 69.0256 67.8672 68.2571 66.9867 67.532C69.3591 62.748 72.4357 58.3597 76.1515 54.4609C79.8653 58.357 82.9417 62.7456 85.3159 67.534C84.4363 68.2584 83.5891 69.0259 82.7775 69.8381C80.0764 72.5377 77.8567 75.6169 76.1524 79.0168C74.4495 75.6186 72.2299 72.5396 69.5273 69.8387ZM76.1474 99.4023C75.8106 98.2027 75.413 97.0295 74.9575 95.886C74.9491 95.6093 74.9448 95.3169 74.9448 94.9962C74.9448 90.7513 75.7551 86.595 77.353 82.6421C79.0267 78.5005 81.4679 74.809 84.6093 71.6696C87.4275 68.8496 90.6985 66.5937 94.3478 64.9511C95.6723 68.6368 96.3211 72.4653 96.2818 76.3612C92.5929 77.9571 89.1658 80.1917 86.1392 83.0143C81.2941 87.5322 77.8813 93.1789 76.1474 99.4023ZM77.5189 106.538C78.1339 98.2487 81.7912 90.6105 87.9054 84.9089C94.0196 79.2071 101.894 76.0914 110.207 76.0563C108.931 93.1445 94.6547 106.459 77.5189 106.538Z" fill="white"/>
<path d="M41.4571 69.7046C42.1725 69.7046 42.7524 69.1247 42.7524 68.4094C42.7524 67.694 42.1725 67.1141 41.4571 67.1141C40.7418 67.1141 40.1619 67.694 40.1619 68.4094C40.1619 69.1247 40.7418 69.7046 41.4571 69.7046Z" fill="white"/>
<path d="M57.2291 55.3233C57.9444 55.3233 58.5243 54.7434 58.5243 54.028C58.5243 53.3127 57.9444 52.7328 57.2291 52.7328C56.5137 52.7328 55.9338 53.3127 55.9338 54.028C55.9338 54.7434 56.5137 55.3233 57.2291 55.3233Z" fill="white"/>
<path d="M76.1512 44.5902C76.8665 44.5902 77.4464 44.0103 77.4464 43.295C77.4464 42.5797 76.8665 41.9998 76.1512 41.9998C75.4359 41.9998 74.856 42.5797 74.856 43.295C74.856 44.0103 75.4359 44.5902 76.1512 44.5902Z" fill="white"/>
<path d="M95.0767 55.3233C95.7921 55.3233 96.372 54.7434 96.372 54.028C96.372 53.3127 95.7921 52.7328 95.0767 52.7328C94.3614 52.7328 93.7815 53.3127 93.7815 54.028C93.7815 54.7434 94.3614 55.3233 95.0767 55.3233Z" fill="white"/>
<path d="M110.846 69.7046C111.561 69.7046 112.141 69.1247 112.141 68.4094C112.141 67.694 111.561 67.1141 110.846 67.1141C110.13 67.1141 109.551 67.694 109.551 68.4094C109.551 69.1247 110.13 69.7046 110.846 69.7046Z" fill="white"/>
</svg>
