<svg width="151" height="151" viewBox="0 0 151 151" fill="none" xmlns="http://www.w3.org/2000/svg">
<path d="M4.99999 75.5C4.99999 36.5639 36.5639 5.00001 75.5 5.00001C114.436 5.00001 146 36.5639 146 75.5C146 114.436 114.436 146 75.5 146C36.5639 146 4.99999 114.436 4.99999 75.5Z" stroke="#150E5C" stroke-width="10"/>
<path d="M73.641 108.219H47.0829C46.3313 108.219 45.7004 107.654 45.6165 106.907L44.6575 98.3066L42.6181 107.078C42.4632 107.747 41.8676 108.219 41.1815 108.219H32.3293C31.8761 108.219 31.4494 108.012 31.1689 107.655C30.8894 107.3 30.7887 106.834 30.8948 106.395L36.3387 84.0199C39.2418 74.337 48.5889 67.9228 58.5966 68.6896C82.2722 70.5118 99.4382 70.8389 106.925 69.6112C108.91 69.2907 110.913 70.1587 112.033 71.8374C112.863 73.0834 113.113 74.6257 112.719 76.0699C112.33 77.4957 111.346 78.6822 110.02 79.3238C104.175 82.1495 92.2891 86.6413 77.2594 85.7311L75.1079 106.893C75.0321 107.646 74.3975 108.219 73.641 108.219ZM48.4026 105.267H72.3078L74.4689 84.0063C74.5507 83.207 75.2438 82.5984 76.0599 82.6867C91.0767 83.9311 102.975 79.4516 108.735 76.6666C109.302 76.3926 109.705 75.9047 109.873 75.2923C110.042 74.6706 109.934 74.0089 109.579 73.4733C109.102 72.758 108.258 72.3768 107.404 72.5235C97.5082 74.1394 75.2796 72.9313 58.3686 71.6305C49.7569 70.9612 41.6715 76.5015 39.1865 84.791L34.2062 105.267H40.0107L43.7298 89.252C43.8917 88.5523 44.554 88.072 45.2526 88.1143C45.9706 88.1554 46.5528 88.7083 46.6334 89.4215L48.4026 105.267Z" fill="white"/>
<path d="M60.0827 99.5224C59.6425 99.5224 59.225 99.3264 58.9455 98.9863L51.9048 90.4639C50.5596 88.8394 50.2288 86.6056 51.0367 84.6345C51.8143 82.7349 53.4762 81.4802 55.4771 81.2755C57.1499 81.1179 58.8199 81.6264 60.0822 82.6704C61.3439 81.6264 63.0459 81.1179 64.6829 81.2755C66.6887 81.4813 68.3495 82.7349 69.1282 84.6345C69.9361 86.6056 69.6047 88.8383 68.2601 90.4639L61.2194 98.9863C60.941 99.3264 60.5224 99.5224 60.0827 99.5224ZM56.115 84.1948C56.0002 84.1948 55.8865 84.2008 55.7728 84.2116C54.4797 84.3443 53.9392 85.3347 53.7665 85.7538C53.4578 86.5076 53.4031 87.647 54.178 88.5854L60.0827 95.7302L65.9869 88.5854C66.7634 87.647 66.7071 86.5076 66.3995 85.7538C66.2262 85.3347 65.6863 84.3443 64.3883 84.2116C63.249 84.0914 61.9888 84.6486 61.312 85.6677C60.765 86.4892 59.4015 86.4892 58.8535 85.6677C58.241 84.7461 57.217 84.1948 56.115 84.1948Z" fill="white"/>
<path d="M62.3617 66.6269C55.5603 66.6269 50.0271 61.0932 50.0271 54.2912C50.0271 47.4893 55.5603 41.9561 62.3617 41.9561C69.1637 41.9561 74.6974 47.4893 74.6974 54.2912C74.6974 61.0932 69.1637 66.6269 62.3617 66.6269ZM62.3617 44.9062C57.1876 44.9062 52.9778 49.117 52.9778 54.2912C52.9778 59.4659 57.1876 63.6762 62.3617 63.6762C67.537 63.6762 71.7473 59.4659 71.7473 54.2912C71.7473 49.117 67.537 44.9062 62.3617 44.9062Z" fill="white"/>
<path d="M92.2274 68.0024C86.1641 68.0024 81.2314 63.0697 81.2314 57.0069C81.2314 50.9425 86.1641 46.0093 92.2274 46.0093C98.2913 46.0093 103.224 50.9425 103.224 57.0069C103.224 63.0697 98.2913 68.0024 92.2274 68.0024ZM92.2274 48.9595C87.7914 48.9595 84.1816 52.5687 84.1816 57.0069C84.1816 61.4425 87.7914 65.0522 92.2274 65.0522C96.6646 65.0522 100.274 61.4425 100.274 57.0069C100.274 52.5687 96.6646 48.9595 92.2274 48.9595Z" fill="white"/>
<path d="M119.378 108.219H108.518C107.943 108.219 107.42 107.884 107.179 107.363L104.563 101.713V106.743C104.563 107.559 103.903 108.219 103.087 108.219H79.5424C79.1238 108.219 78.7247 108.042 78.4447 107.731C78.1642 107.419 78.0305 107.004 78.0743 106.588L79.9003 89.4312C79.9805 88.6806 80.6124 88.1115 81.3668 88.1115C81.5444 88.1115 99.234 88.02 111.405 81.0658C111.797 80.8406 112.27 80.8065 112.686 80.9781C113.105 81.1449 113.424 81.4942 113.552 81.9274L120.793 106.325C120.925 106.77 120.839 107.252 120.562 107.626C120.281 107.999 119.842 108.219 119.378 108.219ZM109.46 105.267H117.4L111.239 84.5072C100.458 90.0084 86.9595 90.8933 82.6967 91.0341L81.1832 105.267H101.612V95.0158C101.612 94.3238 102.094 93.7248 102.771 93.5759C103.442 93.4297 104.135 93.7687 104.426 94.3974L109.46 105.267Z" fill="white"/>
</svg>
