<svg width="151" height="151" viewBox="0 0 151 151" fill="none" xmlns="http://www.w3.org/2000/svg">
<path d="M4.99999 75.5C4.99999 36.5639 36.5639 5.00001 75.5 5.00001C114.436 5.00001 146 36.5639 146 75.5C146 114.436 114.436 146 75.5 146C36.5639 146 4.99999 114.436 4.99999 75.5Z" stroke="#150E5C" stroke-width="10"/>
<path d="M75.1336 39H75.0487C60.8441 39 55.3976 47.6732 53.4082 52.865C53.0502 53.797 52.9249 54.8023 53.0433 55.7936C53.1617 56.785 53.5201 57.7326 54.0875 58.5541C54.6683 59.3925 55.4446 60.0769 56.3491 60.5482C57.2536 61.0195 58.2593 61.2635 59.2793 61.2592C60.5916 61.2812 61.8757 60.8769 62.9387 60.1069C64.0017 59.337 64.7863 58.2431 65.1746 56.9893C66.7152 52.1371 69.9176 49.7839 74.988 49.7839C81.8053 49.7839 84.2314 54.636 84.2314 58.7482C84.2314 62.8604 83.1639 66.3054 77.8508 71.0605C72.9987 75.4274 69.8569 79.6851 68.4255 84.0884C68.1197 85.012 68.0404 85.9956 68.1945 86.9562C68.3487 87.9168 68.7316 88.8262 69.311 89.6077C69.8995 90.4177 70.671 91.0772 71.5627 91.5325C72.4544 91.9879 73.441 92.2261 74.4422 92.2279H74.8182C76.2273 92.2181 77.592 91.734 78.6924 90.8538C79.7927 89.9735 80.5645 88.7483 80.8834 87.3757C81.5991 84.4887 83.3822 81.9171 86.8151 78.7753C94.5907 71.7034 97.2108 66.645 97.2108 58.9665C97.1138 49.0682 90.3086 39.0364 75.1336 39ZM85.0805 76.9922C81.2716 80.4857 79.2822 83.4091 78.4331 86.8056C78.2431 87.6371 77.7828 88.3821 77.1244 88.9242C76.466 89.4664 75.6464 89.775 74.794 89.8018H74.4179C73.7976 89.8 73.1866 89.6518 72.6343 89.3694C72.0821 89.087 71.6043 88.6782 71.2398 88.1763C70.8897 87.7063 70.6584 87.1586 70.5655 86.5799C70.4726 86.0012 70.5208 85.4087 70.706 84.8526C72.004 80.8618 74.8667 76.9437 79.4399 72.8679C85.408 67.5184 86.6332 63.3577 86.6332 58.7482C86.6332 53.0833 82.9941 47.3578 74.9638 47.3578C68.7894 47.3578 64.7137 50.354 62.8335 56.2615C62.6056 56.9291 62.1963 57.52 61.6514 57.968C61.1066 58.416 60.4476 58.7034 59.7486 58.7979C59.0495 58.8923 58.338 58.7902 57.6937 58.5029C57.0494 58.2155 56.498 57.7544 56.1011 57.1712C55.743 56.681 55.5133 56.109 55.4328 55.5073C55.3523 54.9056 55.4236 54.2933 55.6402 53.7262C57.7872 48.1099 62.9184 41.4261 75.0487 41.4261H75.1336C89.5687 41.4261 94.6998 50.8998 94.6998 58.9786C94.6877 66.0021 92.3465 70.3812 85.0805 76.9922Z" fill="white"/>
<path d="M74.4782 95.9397C72.926 95.9397 71.4086 96.4 70.1179 97.2624C68.8273 98.1248 67.8213 99.3505 67.2273 100.785C66.6333 102.219 66.4779 103.797 66.7807 105.319C67.0835 106.842 67.831 108.24 68.9286 109.338C70.0262 110.435 71.4247 111.183 72.9471 111.486C74.4695 111.788 76.0475 111.633 77.4816 111.039C78.9157 110.445 80.1415 109.439 81.0038 108.148C81.8662 106.858 82.3265 105.34 82.3265 103.788C82.3233 101.708 81.4954 99.7131 80.0243 98.242C78.5531 96.7708 76.5587 95.9429 74.4782 95.9397ZM74.4782 109.21C73.4058 109.21 72.3575 108.892 71.4658 108.296C70.5741 107.701 69.8791 106.854 69.4687 105.863C69.0583 104.872 68.9509 103.782 69.1601 102.73C69.3694 101.678 69.8858 100.712 70.6441 99.9539C71.4024 99.1956 72.3686 98.6792 73.4204 98.47C74.4722 98.2607 75.5624 98.3681 76.5532 98.7785C77.544 99.1889 78.3908 99.8839 78.9867 100.776C79.5825 101.667 79.9005 102.716 79.9005 103.788C79.9005 105.226 79.3292 106.605 78.3123 107.622C77.2955 108.639 75.9163 109.21 74.4782 109.21Z" fill="white"/>
</svg>
