<svg width="151" height="151" viewBox="0 0 151 151" fill="none" xmlns="http://www.w3.org/2000/svg">
<path d="M4.99999 75.5C4.99999 36.5639 36.5639 5.00001 75.5 5.00001C114.436 5.00001 146 36.5639 146 75.5C146 114.436 114.436 146 75.5 146C36.5639 146 4.99999 114.436 4.99999 75.5Z" stroke="#150E5C" stroke-width="10"/>
<path d="M54.3973 74.8593V85.6577C54.4012 87.9937 55.256 90.2483 56.8018 91.9997C58.3476 93.7512 60.4786 94.8794 62.7961 95.1735V97.6559H57.9968C55.7701 97.6584 53.6353 98.5441 52.0608 100.119C50.4862 101.693 49.6006 103.828 49.598 106.055V112.054H51.9977V106.055C51.9996 104.464 52.6322 102.939 53.7569 101.815C54.8815 100.69 56.4063 100.057 57.9968 100.056H62.9664C63.2283 101.084 63.8256 101.997 64.6638 102.648C65.5021 103.3 66.5336 103.654 67.5953 103.654C68.6571 103.654 69.6886 103.3 70.5268 102.648C71.3651 101.997 71.9624 101.084 72.2242 100.056H77.1939C78.7844 100.057 80.3092 100.69 81.4338 101.815C82.5584 102.939 83.1911 104.464 83.193 106.055V112.054H85.5927V106.055C85.5901 103.828 84.7044 101.693 83.1299 100.119C81.5554 98.5441 79.4206 97.6584 77.1939 97.6559H72.3946V95.1735C74.7121 94.8794 76.843 93.7512 78.3889 91.9997C79.9347 90.2483 80.7895 87.9937 80.7934 85.6577V76.0591C82.7021 76.0572 84.532 75.2981 85.8817 73.9485C87.2313 72.5988 87.9904 70.7689 87.9923 68.8602V62.8611C87.9923 62.5429 87.8659 62.2377 87.6409 62.0127C87.4159 61.7877 87.1107 61.6613 86.7925 61.6613H67.5953C64.0963 61.6654 60.7417 63.0572 58.2675 65.5314C55.7933 68.0056 54.4014 71.3602 54.3973 74.8593ZM67.5953 101.255C66.9589 101.255 66.3486 101.003 65.8985 100.553C65.4485 100.102 65.1957 99.4921 65.1957 98.8557V95.2562H69.995V98.8557C69.995 99.4921 69.7422 100.102 69.2921 100.553C68.8421 101.003 68.2318 101.255 67.5953 101.255ZM71.1948 92.8566H63.9959C62.0872 92.8547 60.2572 92.0956 58.9076 90.746C57.5579 89.3963 56.7989 87.5664 56.7969 85.6577V83.258H57.9968C57.9968 83.8945 58.2496 84.5048 58.6996 84.9548C59.1496 85.4049 59.76 85.6577 60.3964 85.6577H63.9959C64.6323 85.6577 65.2427 85.4049 65.6927 84.9548C66.1427 84.5048 66.3955 83.8945 66.3955 83.258H68.7952C68.7952 83.8945 69.048 84.5048 69.498 84.9548C69.948 85.4049 70.5584 85.6577 71.1948 85.6577H74.7943C75.4307 85.6577 76.041 85.4049 76.4911 84.9548C76.9411 84.5048 77.1939 83.8945 77.1939 83.258H78.3937V85.6577C78.3918 87.5664 77.6328 89.3963 76.2831 90.746C74.9335 92.0956 73.1035 92.8547 71.1948 92.8566ZM60.3964 83.258V80.8584H63.9959V83.258H60.3964ZM71.1948 83.258V80.8584H74.7943V83.258H71.1948ZM78.3937 80.8584H77.1939C77.1939 80.222 76.9411 79.6116 76.4911 79.1616C76.041 78.7116 75.4307 78.4587 74.7943 78.4587H71.1948C70.5584 78.4587 69.948 78.7116 69.498 79.1616C69.048 79.6116 68.7952 80.222 68.7952 80.8584H66.3955C66.3955 80.222 66.1427 79.6116 65.6927 79.1616C65.2427 78.7116 64.6323 78.4587 63.9959 78.4587H60.3964C59.76 78.4587 59.1496 78.7116 58.6996 79.1616C58.2496 79.6116 57.9968 80.222 57.9968 80.8584H56.7969V76.0591H78.3937V80.8584ZM75.3522 73.6595H72.2326L73.1265 72.3193C74.7706 69.8593 75.7438 67.0125 75.9497 64.0609H79.5408C79.341 66.5371 78.5122 68.9213 77.1327 70.9875L75.3522 73.6595ZM85.5927 68.8602C85.5927 70.133 85.087 71.3537 84.187 72.2538C83.2869 73.1538 82.0662 73.6595 80.7934 73.6595H78.2354L79.1292 72.3193C80.772 69.8589 81.7439 67.0122 81.9488 64.0609H85.5927V68.8602ZM67.5953 64.0609H73.5417C73.3419 66.5371 72.5131 68.9213 71.1336 70.9875L69.3531 73.6595H56.8641C57.1623 71.0211 58.4208 68.5846 60.3999 66.8144C62.3789 65.0442 64.9401 64.0641 67.5953 64.0609Z" fill="white"/>
<path d="M89.2954 64.7736C89.1932 65.0036 89.1659 65.2599 89.2173 65.5063C89.2688 65.7526 89.3965 65.9766 89.5822 66.1464C89.768 66.3162 90.0024 66.4234 90.2524 66.4526C90.5024 66.4818 90.7552 66.4317 90.9752 66.3094L96.1656 63.4298C98.9487 64.3727 101.981 64.2645 104.69 63.1258C107.398 61.9871 109.597 59.8965 110.871 57.2483C112.144 54.6002 112.405 51.5775 111.603 48.7505C110.802 45.9234 108.993 43.4874 106.519 41.9019C104.045 40.3164 101.076 39.691 98.1729 40.1437C95.2695 40.5963 92.6321 42.0957 90.7581 44.3591C88.8841 46.6225 87.9031 49.4934 88.0001 52.4303C88.0971 55.3672 89.2654 58.1671 91.2847 60.3019L89.2954 64.7736ZM90.392 52.0627C90.3869 50.0049 91.0417 47.9996 92.2601 46.3413C93.4785 44.683 95.1965 43.459 97.1618 42.8489C99.1271 42.2388 101.236 42.2749 103.18 42.9517C105.123 43.6285 106.798 44.9105 107.959 46.6095C109.12 48.3085 109.706 50.3349 109.631 52.3913C109.555 54.4478 108.823 56.4259 107.54 58.0353C106.258 59.6447 104.493 60.8006 102.506 61.3334C100.518 61.8661 98.4121 61.7477 96.4967 60.9954C96.3322 60.931 96.1555 60.9037 95.9792 60.9155C95.8029 60.9273 95.6313 60.978 95.4769 61.0638L92.9453 62.4699L93.8151 60.5154C93.9174 60.2852 93.9447 60.0286 93.893 59.782C93.8413 59.5355 93.7133 59.3114 93.5272 59.1416C92.5423 58.2435 91.7551 57.1505 91.2153 55.9318C90.6756 54.7131 90.3952 53.3955 90.392 52.0627Z" fill="white"/>
<path d="M50.7979 61.6612C52.085 61.6629 53.3619 61.4333 54.5677 60.9833L58.7239 62.7639C58.8731 62.8285 59.0341 62.8616 59.1967 62.8611C59.3686 62.8611 59.5386 62.8241 59.695 62.7527C59.8515 62.6813 59.9908 62.5771 60.1034 62.4472C60.216 62.3172 60.2994 62.1646 60.3479 61.9996C60.3964 61.8346 60.4089 61.6611 60.3845 61.4909L59.7306 56.9123C60.9497 55.1308 61.6002 53.0216 61.5963 50.8628C61.5963 48.7271 60.963 46.6394 59.7764 44.8636C58.5899 43.0878 56.9034 41.7037 54.9303 40.8864C52.9571 40.0691 50.7859 39.8553 48.6912 40.2719C46.5966 40.6886 44.6725 41.7171 43.1623 43.2272C41.6521 44.7374 40.6237 46.6615 40.207 48.7562C39.7903 50.8509 40.0042 53.0221 40.8215 54.9952C41.6388 56.9684 43.0229 58.6548 44.7986 59.8414C46.5744 61.0279 48.6622 61.6612 50.7979 61.6612ZM50.7979 42.4641C53.0246 42.4666 55.1594 43.3523 56.7339 44.9268C58.3084 46.5014 59.1941 48.6361 59.1967 50.8628C59.1991 52.6761 58.6093 54.4405 57.5169 55.8877C57.3257 56.142 57.2432 56.4617 57.2877 56.7768L57.7089 59.7175L55.0561 58.5813C54.9067 58.5173 54.7459 58.4842 54.5833 58.4842C54.4208 58.4842 54.26 58.5173 54.1106 58.5813C52.9653 59.0726 51.725 59.3029 50.4796 59.2555C49.2343 59.2081 48.0151 58.8841 46.9105 58.307C45.8059 57.73 44.8435 56.9143 44.0932 55.9192C43.3429 54.9241 42.8235 53.7745 42.5726 52.5538C42.3217 51.333 42.3456 50.0717 42.6426 48.8614C42.9395 47.651 43.5022 46.5219 44.2896 45.556C45.0771 44.59 46.0697 43.8114 47.1954 43.2767C48.3211 42.7419 49.5516 42.4643 50.7979 42.4641Z" fill="white"/>
<path d="M98.1908 50.8629H98.7907V48.4632H98.1908C98.0317 48.4632 97.8791 48.4 97.7666 48.2875C97.6541 48.175 97.5909 48.0224 97.5909 47.8633C97.5909 47.7042 97.6541 47.5516 97.7666 47.4391C97.8791 47.3266 98.0317 47.2634 98.1908 47.2634H101.79C101.949 47.2634 102.102 47.3266 102.215 47.4391C102.327 47.5516 102.39 47.7042 102.39 47.8633C102.391 48.5887 102.212 49.303 101.87 49.9426C101.528 50.5822 101.033 51.1271 100.429 51.5288C99.9245 51.8642 99.5112 52.3191 99.2255 52.8529C98.9397 53.3867 98.7904 53.9829 98.7907 54.5883V55.6622H101.19V54.5883C101.19 54.3779 101.242 54.1707 101.342 53.9852C101.441 53.7997 101.585 53.6417 101.76 53.5253C102.693 52.9047 103.458 52.0629 103.987 51.075C104.515 50.0871 104.791 48.9838 104.79 47.8633C104.79 47.0678 104.474 46.3048 103.911 45.7423C103.349 45.1798 102.586 44.8638 101.79 44.8638H98.1908C97.3953 44.8638 96.6324 45.1798 96.0698 45.7423C95.5073 46.3048 95.1913 47.0678 95.1913 47.8633C95.1913 48.6589 95.5073 49.4218 96.0698 49.9843C96.6324 50.5469 97.3953 50.8629 98.1908 50.8629Z" fill="white"/>
<path d="M101.19 56.8619H98.7908V59.2616H101.19V56.8619Z" fill="white"/>
<path d="M48.9982 49.663H49.5981V47.2634H48.9982C48.8391 47.2634 48.6865 47.2002 48.574 47.0877C48.4615 46.9752 48.3983 46.8226 48.3983 46.6635C48.3983 46.5044 48.4615 46.3518 48.574 46.2393C48.6865 46.1268 48.8391 46.0636 48.9982 46.0636H52.5977C52.7568 46.0636 52.9094 46.1268 53.0219 46.2393C53.1344 46.3518 53.1976 46.5044 53.1976 46.6635C53.1984 47.3889 53.0197 48.1032 52.6774 48.7428C52.3351 49.3823 51.8399 49.9272 51.2359 50.3289C50.7318 50.6644 50.3186 51.1193 50.0328 51.6531C49.7471 52.1869 49.5978 52.783 49.5981 53.3885V54.4623H51.9978V53.3885C51.9977 53.178 52.0497 52.9708 52.1491 52.7853C52.2486 52.5999 52.3923 52.4419 52.5677 52.3254C53.5005 51.7049 54.2654 50.8631 54.794 49.8752C55.3226 48.8873 55.5985 47.7839 55.5972 46.6635C55.5972 45.868 55.2812 45.105 54.7187 44.5425C54.1562 43.98 53.3932 43.6639 52.5977 43.6639H48.9982C48.2027 43.6639 47.4397 43.98 46.8772 44.5425C46.3147 45.105 45.9987 45.868 45.9987 46.6635C45.9987 47.459 46.3147 48.222 46.8772 48.7845C47.4397 49.347 48.2027 49.663 48.9982 49.663Z" fill="white"/>
<path d="M51.9977 55.6621H49.598V58.0618H51.9977V55.6621Z" fill="white"/>
<path d="M69.4982 89.2571H65.6924L64.8441 88.4088L63.1476 90.1054L64.3474 91.3052C64.5724 91.5302 64.8775 91.6567 65.1957 91.6567H69.995C70.3131 91.6567 70.6183 91.5302 70.8432 91.3052L72.0431 90.1054L70.3465 88.4088L69.4982 89.2571Z" fill="white"/>
<path d="M101.19 73.6594C101.19 74.3713 101.402 75.0672 101.797 75.6592C102.193 76.2511 102.755 76.7124 103.412 76.9849C104.07 77.2573 104.794 77.3286 105.492 77.1897C106.19 77.0508 106.832 76.708 107.335 76.2046C107.838 75.7012 108.181 75.0598 108.32 74.3616C108.459 73.6634 108.388 72.9397 108.115 72.2819C107.843 71.6242 107.382 71.0621 106.79 70.6666C106.198 70.271 105.502 70.0599 104.79 70.0599C103.835 70.0599 102.92 70.4392 102.245 71.1142C101.57 71.7892 101.19 72.7048 101.19 73.6594ZM105.99 73.6594C105.99 73.8967 105.919 74.1287 105.788 74.326C105.656 74.5233 105.468 74.6771 105.249 74.7679C105.03 74.8587 104.789 74.8825 104.556 74.8362C104.323 74.7899 104.109 74.6756 103.941 74.5078C103.774 74.34 103.659 74.1262 103.613 73.8935C103.567 73.6607 103.591 73.4195 103.681 73.2002C103.772 72.981 103.926 72.7936 104.123 72.6618C104.321 72.5299 104.553 72.4596 104.79 72.4596C105.108 72.4596 105.413 72.586 105.638 72.811C105.863 73.036 105.99 73.3412 105.99 73.6594Z" fill="white"/>
<path d="M73.5945 55.6621C74.3064 55.6621 75.0023 55.451 75.5942 55.0554C76.1861 54.6599 76.6475 54.0978 76.9199 53.4401C77.1924 52.7823 77.2636 52.0586 77.1248 51.3604C76.9859 50.6622 76.6431 50.0208 76.1397 49.5174C75.6363 49.014 74.9949 48.6712 74.2967 48.5323C73.5985 48.3934 72.8747 48.4647 72.217 48.7371C71.5593 49.0096 70.9971 49.4709 70.6016 50.0628C70.2061 50.6548 69.995 51.3507 69.995 52.0626C69.995 53.0172 70.3742 53.9328 71.0493 54.6078C71.7243 55.2828 72.6398 55.6621 73.5945 55.6621ZM73.5945 50.8628C73.8318 50.8628 74.0637 50.9331 74.261 51.065C74.4584 51.1968 74.6121 51.3842 74.7029 51.6034C74.7938 51.8227 74.8175 52.0639 74.7712 52.2967C74.7249 52.5294 74.6107 52.7432 74.4429 52.911C74.2751 53.0788 74.0613 53.1931 73.8285 53.2394C73.5958 53.2857 73.3545 53.2619 73.1353 53.1711C72.9161 53.0803 72.7287 52.9265 72.5968 52.7292C72.465 52.5319 72.3946 52.2999 72.3946 52.0626C72.3946 51.7444 72.521 51.4392 72.7461 51.2142C72.9711 50.9892 73.2762 50.8628 73.5945 50.8628Z" fill="white"/>
<path d="M45.9986 65.2607C45.2867 65.2607 44.5908 65.4718 43.9989 65.8674C43.407 66.2629 42.9456 66.825 42.6732 67.4828C42.4007 68.1405 42.3294 68.8642 42.4683 69.5624C42.6072 70.2607 42.95 70.902 43.4534 71.4054C43.9568 71.9088 44.5982 72.2516 45.2964 72.3905C45.9946 72.5294 46.7184 72.4581 47.3761 72.1857C48.0338 71.9132 48.596 71.4519 48.9915 70.86C49.387 70.268 49.5981 69.5721 49.5981 68.8602C49.5981 67.9056 49.2189 66.99 48.5438 66.315C47.8688 65.64 46.9533 65.2607 45.9986 65.2607ZM45.9986 70.06C45.7613 70.06 45.5294 69.9897 45.332 69.8578C45.1347 69.726 44.981 69.5386 44.8901 69.3194C44.7993 69.1001 44.7756 68.8589 44.8219 68.6261C44.8682 68.3934 44.9824 68.1796 45.1502 68.0118C45.318 67.844 45.5318 67.7297 45.7646 67.6834C45.9973 67.6371 46.2385 67.6609 46.4578 67.7517C46.677 67.8425 46.8644 67.9963 46.9962 68.1936C47.1281 68.3909 47.1985 68.6229 47.1985 68.8602C47.1985 69.1784 47.072 69.4836 46.847 69.7086C46.622 69.9336 46.3168 70.06 45.9986 70.06Z" fill="white"/>
<path d="M99.9906 79.6585C98.6892 79.6593 97.3966 79.8733 96.1644 80.292L90.974 77.4125C90.754 77.2901 90.5012 77.24 90.2512 77.2692C90.0012 77.2985 89.7668 77.4056 89.581 77.5754C89.3953 77.7453 89.2676 77.9692 89.2162 78.2156C89.1647 78.4619 89.192 78.7182 89.2942 78.9482L91.2823 83.4224C89.39 85.4295 88.248 88.0279 88.0488 90.7792C87.8496 93.5304 88.6054 96.2662 90.1888 98.525C91.7723 100.784 94.0863 102.427 96.7406 103.178C99.3949 103.929 102.227 103.742 104.759 102.647C107.291 101.553 109.368 99.6186 110.64 97.1707C111.912 94.7229 112.3 91.9113 111.74 89.2103C111.18 86.5093 109.705 84.0842 107.565 82.3441C105.424 80.6041 102.749 79.6555 99.9906 79.6585ZM99.9906 101.255C98.055 101.258 96.164 100.674 94.5664 99.5814C92.9687 98.4886 91.7393 96.9378 91.0399 95.133C90.3404 93.3282 90.2037 91.3539 90.6476 89.4699C91.0916 87.5859 92.0955 85.8804 93.5272 84.5778C93.7134 84.408 93.8413 84.184 93.893 83.9374C93.9447 83.6908 93.9175 83.4342 93.8152 83.204L92.9453 81.2495L95.4769 82.6557C95.6314 82.7415 95.8029 82.7921 95.9792 82.8039C96.1555 82.8157 96.3322 82.7885 96.4968 82.7241C97.8115 82.207 99.2242 81.9866 100.634 82.0785C102.044 82.1704 103.416 82.5724 104.652 83.2558C105.889 83.9392 106.959 84.8871 107.787 86.0319C108.615 87.1766 109.18 88.4901 109.442 89.8784C109.704 91.2667 109.656 92.6957 109.302 94.0633C108.947 95.431 108.296 96.7036 107.393 97.7903C106.49 98.877 105.358 99.7511 104.079 100.35C102.799 100.949 101.403 101.258 99.9906 101.255Z" fill="white"/>
<path d="M101.79 84.4578H98.1908C97.3953 84.4578 96.6324 84.7738 96.0698 85.3363C95.5073 85.8988 95.1913 86.6618 95.1913 87.4573C95.1913 88.2528 95.5073 89.0158 96.0698 89.5783C96.6324 90.1408 97.3953 90.4569 98.1908 90.4569H98.7907V88.0572H98.1908C98.0317 88.0572 97.8791 87.994 97.7666 87.8815C97.6541 87.769 97.5909 87.6164 97.5909 87.4573C97.5909 87.2982 97.6541 87.1456 97.7666 87.0331C97.8791 86.9206 98.0317 86.8574 98.1908 86.8574H101.79C101.949 86.8574 102.102 86.9206 102.215 87.0331C102.327 87.1456 102.39 87.2982 102.39 87.4573C102.391 88.1827 102.212 88.897 101.87 89.5366C101.528 90.1761 101.033 90.7211 100.429 91.1228C99.9245 91.4582 99.5112 91.9131 99.2255 92.4469C98.9397 92.9807 98.7904 93.5769 98.7907 94.1823V95.2562H101.19V94.1763C101.19 93.9659 101.242 93.7586 101.342 93.5732C101.441 93.3877 101.585 93.2297 101.76 93.1133C102.692 92.4932 103.457 91.6524 103.985 90.6656C104.514 89.6789 104.79 88.5767 104.79 87.4573C104.79 86.6618 104.474 85.8988 103.911 85.3363C103.349 84.7738 102.586 84.4578 101.79 84.4578Z" fill="white"/>
<path d="M101.19 96.4561H98.7908V98.8557H101.19V96.4561Z" fill="white"/>
</svg>
