<svg width="151" height="151" viewBox="0 0 151 151" fill="none" xmlns="http://www.w3.org/2000/svg">
<path d="M4.99999 75.5C4.99999 36.5639 36.5639 5.00001 75.5 5.00001C114.436 5.00001 146 36.5639 146 75.5C146 114.436 114.436 146 75.5 146C36.5639 146 4.99999 114.436 4.99999 75.5Z" stroke="#150E5C" stroke-width="10"/>
<path d="M63 91C73.5 93.5 80 93.5 89 91" stroke="white" stroke-width="3" stroke-linecap="round" stroke-linejoin="round"/>
<path d="M63.8627 72.3823C66.0971 72.3823 67.9105 75.0376 67.9105 77.2396C67.9105 77.669 68.081 78.0809 68.3847 78.3845C68.6883 78.6881 69.1002 78.8587 69.5296 78.8587C69.959 78.8587 70.3708 78.6881 70.6745 78.3845C70.9781 78.0809 71.1487 77.669 71.1487 77.2396C71.1487 73.4185 68.04 69.144 63.8627 69.144C59.6854 69.144 56.5767 73.4185 56.5767 77.2396C56.5767 77.669 56.7472 78.0809 57.0509 78.3845C57.3545 78.6881 57.7664 78.8587 58.1958 78.8587C58.6252 78.8587 59.037 78.6881 59.3407 78.3845C59.6443 78.0809 59.8149 77.669 59.8149 77.2396C59.8149 75.0376 61.6283 72.3823 63.8627 72.3823Z" fill="white"/>
<path d="M80.8638 77.2396C80.8638 77.669 81.0344 78.0809 81.338 78.3845C81.6416 78.6881 82.0535 78.8587 82.4829 78.8587C82.9123 78.8587 83.3241 78.6881 83.6278 78.3845C83.9314 78.0809 84.102 77.669 84.102 77.2396C84.102 75.0376 85.9154 72.3823 88.1498 72.3823C90.3842 72.3823 92.1976 75.0376 92.1976 77.2396C92.1976 77.669 92.3682 78.0809 92.6718 78.3845C92.9754 78.6881 93.3873 78.8587 93.8167 78.8587C94.2461 78.8587 94.6579 78.6881 94.9616 78.3845C95.2652 78.0809 95.4358 77.669 95.4358 77.2396C95.4358 73.4185 92.3271 69.144 88.1498 69.144C83.9725 69.144 80.8638 73.4185 80.8638 77.2396Z" fill="white"/>
<path d="M87.6607 92.607C87.608 92.1808 87.3882 91.793 87.0496 91.5289C86.7111 91.2648 86.2814 91.146 85.8553 91.1986C85.4291 91.2513 85.0413 91.4711 84.7772 91.8097C84.513 92.1482 84.3942 92.5779 84.4469 93.0041C84.7169 95.1894 83.2427 98.0471 81.0252 98.3211C78.8077 98.595 76.6824 96.1821 76.4124 93.9967C76.3597 93.5705 76.14 93.1827 75.8014 92.9186C75.4628 92.6545 75.0332 92.5357 74.607 92.5883C74.1808 92.641 73.793 92.8608 73.5289 93.1994C73.2648 93.5379 73.146 93.9676 73.1986 94.3938C73.6671 98.186 77.2765 102.047 81.4223 101.535C85.5681 101.023 88.1292 96.3993 87.6607 92.607Z" fill="white"/>
<circle cx="76" cy="77" r="32.5" stroke="white" stroke-width="3"/>
</svg>
