<svg width="102" height="102" viewBox="0 0 102 102" fill="none" xmlns="http://www.w3.org/2000/svg">
<path d="M3.67662 50.683C3.67662 24.6697 24.7646 3.58171 50.7779 3.58171C76.7912 3.58172 97.8792 24.6697 97.8792 50.683C97.8792 76.6963 76.7912 97.7843 50.7779 97.7843C24.7646 97.7843 3.67661 76.6963 3.67662 50.683Z" stroke="#150E5C" stroke-width="6.68103"/>
<path d="M74.9103 49.339C71.9705 49.2361 69.0939 49.6683 66.3912 50.5917C66.3375 47.7051 65.7575 44.8753 64.6614 42.1625C64.4823 41.7195 63.9786 41.5054 63.5348 41.6843C61.8227 42.376 60.2192 43.2497 58.7368 44.2944C56.9572 40.7845 54.6369 37.586 51.8263 34.7764C51.4882 34.4385 50.9405 34.4385 50.6027 34.7765C47.7909 37.5884 45.4707 40.7864 43.6925 44.293C42.2109 43.2491 40.6081 42.3758 38.8965 41.6843C38.4531 41.5053 37.9491 41.7194 37.77 42.1625C36.672 44.8797 36.0918 47.7142 36.0396 50.6057C33.3737 49.6896 30.5009 49.2351 27.5204 49.339C27.0428 49.3557 26.6692 49.7564 26.6858 50.2339C27.133 63.0389 37.6916 73.151 50.4062 73.151C50.6746 73.151 50.9453 73.1461 51.2155 73.1372C51.4864 73.1463 51.7558 73.151 52.0249 73.151C64.7383 73.151 75.298 63.0383 75.7451 50.2339C75.7616 49.7564 75.388 49.3556 74.9103 49.339ZM39.0599 43.6355C41.4981 44.7331 43.6832 46.2404 45.5652 48.1245C47.5857 50.1439 49.1703 52.5038 50.2819 55.1418C49.5403 57.0573 49.0539 59.0373 48.8271 61.0571C46.2762 56.7257 42.3939 53.2838 37.7675 51.2758C37.7392 48.667 38.1728 46.1033 39.0599 43.6355ZM28.4637 51.055C34.0168 51.0788 39.2787 53.1604 43.3633 56.9695C47.4481 60.7786 49.8918 65.8818 50.3026 71.4202C38.8551 71.3663 29.3158 62.4709 28.4637 51.055ZM46.789 46.9009C46.2464 46.3577 45.6799 45.8443 45.0917 45.3598C46.6766 42.1636 48.7322 39.2318 51.2147 36.627C53.6959 39.23 55.7513 42.162 57.3375 45.3611C56.7498 45.8451 56.1838 46.3579 55.6415 46.9005C53.837 48.7041 52.3539 50.7613 51.2153 53.0329C50.0776 50.7625 48.5947 48.7054 46.789 46.9009ZM51.2119 66.6524C50.987 65.851 50.7213 65.0672 50.417 64.3032C50.4114 64.1184 50.4085 63.923 50.4085 63.7087C50.4085 60.8727 50.9499 58.0958 52.0174 55.4549C53.1356 52.6879 54.7666 50.2216 56.8654 48.1241C58.7482 46.2401 60.9336 44.7329 63.3717 43.6355C64.2566 46.0979 64.6901 48.6558 64.6638 51.2586C62.1992 52.3248 59.9096 53.8178 57.8875 55.7036C54.6505 58.722 52.3704 62.4946 51.2119 66.6524ZM52.1283 71.4201C52.5392 65.8818 54.9826 60.7786 59.0675 56.9694C63.1525 53.16 68.4135 51.0784 73.9672 51.0549C73.1149 62.4716 63.5768 71.3674 52.1283 71.4201Z" fill="white"/>
</svg>
